<svg xmlns="http://www.w3.org/2000/svg" xmlns:xlink="http://www.w3.org/1999/xlink" width="600" height="400" viewBox="0 0 2400 1600">
<defs>
  <clipPath id="clip210">
    <rect x="0" y="0" width="2400" height="1600"></rect>
  </clipPath>
</defs>
<path clip-path="url(#clip210)" d="M0 1600 L2400 1600 L2400 0 L0 0  Z" fill="#ffffff" fill-rule="evenodd" fill-opacity="1"></path>
<defs>
  <clipPath id="clip211">
    <rect x="480" y="0" width="1681" height="1600"></rect>
  </clipPath>
</defs>
<path clip-path="url(#clip210)" d="M156.598 1486.45 L2352.76 1486.45 L2352.76 47.2441 L156.598 47.2441  Z" fill="#ffffff" fill-rule="evenodd" fill-opacity="1"></path>
<defs>
  <clipPath id="clip212">
    <rect x="156" y="47" width="2197" height="1440"></rect>
  </clipPath>
</defs>
<polyline clip-path="url(#clip212)" style="stroke:#000000; stroke-linecap:round; stroke-linejoin:round; stroke-width:2; stroke-opacity:0.1; fill:none" points="216.68,1486.45 216.68,47.2441 "></polyline>
<polyline clip-path="url(#clip212)" style="stroke:#000000; stroke-linecap:round; stroke-linejoin:round; stroke-width:2; stroke-opacity:0.1; fill:none" points="735.16,1486.45 735.16,47.2441 "></polyline>
<polyline clip-path="url(#clip212)" style="stroke:#000000; stroke-linecap:round; stroke-linejoin:round; stroke-width:2; stroke-opacity:0.1; fill:none" points="1253.64,1486.45 1253.64,47.2441 "></polyline>
<polyline clip-path="url(#clip212)" style="stroke:#000000; stroke-linecap:round; stroke-linejoin:round; stroke-width:2; stroke-opacity:0.1; fill:none" points="1772.12,1486.45 1772.12,47.2441 "></polyline>
<polyline clip-path="url(#clip212)" style="stroke:#000000; stroke-linecap:round; stroke-linejoin:round; stroke-width:2; stroke-opacity:0.1; fill:none" points="2290.6,1486.45 2290.6,47.2441 "></polyline>
<polyline clip-path="url(#clip210)" style="stroke:#000000; stroke-linecap:round; stroke-linejoin:round; stroke-width:4; stroke-opacity:1; fill:none" points="156.598,1486.45 2352.76,1486.45 "></polyline>
<polyline clip-path="url(#clip210)" style="stroke:#000000; stroke-linecap:round; stroke-linejoin:round; stroke-width:4; stroke-opacity:1; fill:none" points="216.68,1486.45 216.68,1467.55 "></polyline>
<polyline clip-path="url(#clip210)" style="stroke:#000000; stroke-linecap:round; stroke-linejoin:round; stroke-width:4; stroke-opacity:1; fill:none" points="735.16,1486.45 735.16,1467.55 "></polyline>
<polyline clip-path="url(#clip210)" style="stroke:#000000; stroke-linecap:round; stroke-linejoin:round; stroke-width:4; stroke-opacity:1; fill:none" points="1253.64,1486.45 1253.64,1467.55 "></polyline>
<polyline clip-path="url(#clip210)" style="stroke:#000000; stroke-linecap:round; stroke-linejoin:round; stroke-width:4; stroke-opacity:1; fill:none" points="1772.12,1486.45 1772.12,1467.55 "></polyline>
<polyline clip-path="url(#clip210)" style="stroke:#000000; stroke-linecap:round; stroke-linejoin:round; stroke-width:4; stroke-opacity:1; fill:none" points="2290.6,1486.45 2290.6,1467.55 "></polyline>
<path clip-path="url(#clip210)" d="M216.68 1517.37 Q213.069 1517.37 211.24 1520.93 Q209.434 1524.47 209.434 1531.6 Q209.434 1538.71 211.24 1542.27 Q213.069 1545.82 216.68 1545.82 Q220.314 1545.82 222.12 1542.27 Q223.948 1538.71 223.948 1531.6 Q223.948 1524.47 222.12 1520.93 Q220.314 1517.37 216.68 1517.37 M216.68 1513.66 Q222.49 1513.66 225.545 1518.27 Q228.624 1522.85 228.624 1531.6 Q228.624 1540.33 225.545 1544.94 Q222.49 1549.52 216.68 1549.52 Q210.87 1549.52 207.791 1544.94 Q204.735 1540.33 204.735 1531.6 Q204.735 1522.85 207.791 1518.27 Q210.87 1513.66 216.68 1513.66 Z" fill="#000000" fill-rule="nonzero" fill-opacity="1"></path><path clip-path="url(#clip210)" d="M698.852 1544.91 L715.172 1544.91 L715.172 1548.85 L693.227 1548.85 L693.227 1544.91 Q695.889 1542.16 700.473 1537.53 Q705.079 1532.88 706.26 1531.53 Q708.505 1529.01 709.385 1527.27 Q710.287 1525.51 710.287 1523.82 Q710.287 1521.07 708.343 1519.33 Q706.422 1517.6 703.32 1517.6 Q701.121 1517.6 698.667 1518.36 Q696.237 1519.13 693.459 1520.68 L693.459 1515.95 Q696.283 1514.82 698.736 1514.24 Q701.19 1513.66 703.227 1513.66 Q708.598 1513.66 711.792 1516.35 Q714.986 1519.03 714.986 1523.52 Q714.986 1525.65 714.176 1527.57 Q713.389 1529.47 711.283 1532.07 Q710.704 1532.74 707.602 1535.95 Q704.5 1539.15 698.852 1544.91 Z" fill="#000000" fill-rule="nonzero" fill-opacity="1"></path><path clip-path="url(#clip210)" d="M725.033 1514.29 L743.389 1514.29 L743.389 1518.22 L729.315 1518.22 L729.315 1526.7 Q730.334 1526.35 731.352 1526.19 Q732.371 1526 733.389 1526 Q739.176 1526 742.556 1529.17 Q745.935 1532.34 745.935 1537.76 Q745.935 1543.34 742.463 1546.44 Q738.991 1549.52 732.672 1549.52 Q730.496 1549.52 728.227 1549.15 Q725.982 1548.78 723.574 1548.04 L723.574 1543.34 Q725.658 1544.47 727.88 1545.03 Q730.102 1545.58 732.579 1545.58 Q736.584 1545.58 738.921 1543.48 Q741.259 1541.37 741.259 1537.76 Q741.259 1534.15 738.921 1532.04 Q736.584 1529.94 732.579 1529.94 Q730.704 1529.94 728.829 1530.35 Q726.977 1530.77 725.033 1531.65 L725.033 1514.29 Z" fill="#000000" fill-rule="nonzero" fill-opacity="1"></path><path clip-path="url(#clip210)" d="M765.148 1517.37 Q761.537 1517.37 759.708 1520.93 Q757.903 1524.47 757.903 1531.6 Q757.903 1538.71 759.708 1542.27 Q761.537 1545.82 765.148 1545.82 Q768.782 1545.82 770.588 1542.27 Q772.417 1538.71 772.417 1531.6 Q772.417 1524.47 770.588 1520.93 Q768.782 1517.37 765.148 1517.37 M765.148 1513.66 Q770.958 1513.66 774.014 1518.27 Q777.093 1522.85 777.093 1531.6 Q777.093 1540.33 774.014 1544.94 Q770.958 1549.52 765.148 1549.52 Q759.338 1549.52 756.259 1544.94 Q753.204 1540.33 753.204 1531.6 Q753.204 1522.85 756.259 1518.27 Q759.338 1513.66 765.148 1513.66 Z" fill="#000000" fill-rule="nonzero" fill-opacity="1"></path><path clip-path="url(#clip210)" d="M1213.26 1514.29 L1231.61 1514.29 L1231.61 1518.22 L1217.54 1518.22 L1217.54 1526.7 Q1218.56 1526.35 1219.58 1526.19 Q1220.6 1526 1221.61 1526 Q1227.4 1526 1230.78 1529.17 Q1234.16 1532.34 1234.16 1537.76 Q1234.16 1543.34 1230.69 1546.44 Q1227.22 1549.52 1220.9 1549.52 Q1218.72 1549.52 1216.45 1549.15 Q1214.21 1548.78 1211.8 1548.04 L1211.8 1543.34 Q1213.88 1544.47 1216.11 1545.03 Q1218.33 1545.58 1220.8 1545.58 Q1224.81 1545.58 1227.15 1543.48 Q1229.49 1541.37 1229.49 1537.76 Q1229.49 1534.15 1227.15 1532.04 Q1224.81 1529.94 1220.8 1529.94 Q1218.93 1529.94 1217.05 1530.35 Q1215.2 1530.77 1213.26 1531.65 L1213.26 1514.29 Z" fill="#000000" fill-rule="nonzero" fill-opacity="1"></path><path clip-path="url(#clip210)" d="M1253.37 1517.37 Q1249.76 1517.37 1247.93 1520.93 Q1246.13 1524.47 1246.13 1531.6 Q1246.13 1538.71 1247.93 1542.27 Q1249.76 1545.82 1253.37 1545.82 Q1257.01 1545.82 1258.81 1542.27 Q1260.64 1538.71 1260.64 1531.6 Q1260.64 1524.47 1258.81 1520.93 Q1257.01 1517.37 1253.37 1517.37 M1253.37 1513.66 Q1259.18 1513.66 1262.24 1518.27 Q1265.32 1522.85 1265.32 1531.6 Q1265.32 1540.33 1262.24 1544.94 Q1259.18 1549.52 1253.37 1549.52 Q1247.56 1549.52 1244.49 1544.94 Q1241.43 1540.33 1241.43 1531.6 Q1241.43 1522.85 1244.49 1518.27 Q1247.56 1513.66 1253.37 1513.66 Z" fill="#000000" fill-rule="nonzero" fill-opacity="1"></path><path clip-path="url(#clip210)" d="M1283.54 1517.37 Q1279.92 1517.37 1278.1 1520.93 Q1276.29 1524.47 1276.29 1531.6 Q1276.29 1538.71 1278.1 1542.27 Q1279.92 1545.82 1283.54 1545.82 Q1287.17 1545.82 1288.98 1542.27 Q1290.8 1538.71 1290.8 1531.6 Q1290.8 1524.47 1288.98 1520.93 Q1287.17 1517.37 1283.54 1517.37 M1283.54 1513.66 Q1289.35 1513.66 1292.4 1518.27 Q1295.48 1522.85 1295.48 1531.6 Q1295.48 1540.33 1292.4 1544.94 Q1289.35 1549.52 1283.54 1549.52 Q1277.73 1549.52 1274.65 1544.94 Q1271.59 1540.33 1271.59 1531.6 Q1271.59 1522.85 1274.65 1518.27 Q1277.73 1513.66 1283.54 1513.66 Z" fill="#000000" fill-rule="nonzero" fill-opacity="1"></path><path clip-path="url(#clip210)" d="M1730.4 1514.29 L1752.62 1514.29 L1752.62 1516.28 L1740.07 1548.85 L1735.19 1548.85 L1746.99 1518.22 L1730.4 1518.22 L1730.4 1514.29 Z" fill="#000000" fill-rule="nonzero" fill-opacity="1"></path><path clip-path="url(#clip210)" d="M1761.78 1514.29 L1780.14 1514.29 L1780.14 1518.22 L1766.07 1518.22 L1766.07 1526.7 Q1767.09 1526.35 1768.1 1526.19 Q1769.12 1526 1770.14 1526 Q1775.93 1526 1779.31 1529.17 Q1782.69 1532.34 1782.69 1537.76 Q1782.69 1543.34 1779.22 1546.44 Q1775.74 1549.52 1769.42 1549.52 Q1767.25 1549.52 1764.98 1549.15 Q1762.73 1548.78 1760.33 1548.04 L1760.33 1543.34 Q1762.41 1544.47 1764.63 1545.03 Q1766.85 1545.58 1769.33 1545.58 Q1773.34 1545.58 1775.67 1543.48 Q1778.01 1541.37 1778.01 1537.76 Q1778.01 1534.15 1775.67 1532.04 Q1773.34 1529.94 1769.33 1529.94 Q1767.46 1529.94 1765.58 1530.35 Q1763.73 1530.77 1761.78 1531.65 L1761.78 1514.29 Z" fill="#000000" fill-rule="nonzero" fill-opacity="1"></path><path clip-path="url(#clip210)" d="M1801.9 1517.37 Q1798.29 1517.37 1796.46 1520.93 Q1794.65 1524.47 1794.65 1531.6 Q1794.65 1538.71 1796.46 1542.27 Q1798.29 1545.82 1801.9 1545.82 Q1805.53 1545.82 1807.34 1542.27 Q1809.17 1538.71 1809.17 1531.6 Q1809.17 1524.47 1807.34 1520.93 Q1805.53 1517.37 1801.9 1517.37 M1801.9 1513.66 Q1807.71 1513.66 1810.77 1518.27 Q1813.84 1522.85 1813.84 1531.6 Q1813.84 1540.33 1810.77 1544.94 Q1807.71 1549.52 1801.9 1549.52 Q1796.09 1549.52 1793.01 1544.94 Q1789.96 1540.33 1789.96 1531.6 Q1789.96 1522.85 1793.01 1518.27 Q1796.09 1513.66 1801.9 1513.66 Z" fill="#000000" fill-rule="nonzero" fill-opacity="1"></path><path clip-path="url(#clip210)" d="M2235.13 1544.91 L2242.77 1544.91 L2242.77 1518.55 L2234.45 1520.21 L2234.45 1515.95 L2242.72 1514.29 L2247.39 1514.29 L2247.39 1544.91 L2255.03 1544.91 L2255.03 1548.85 L2235.13 1548.85 L2235.13 1544.91 Z" fill="#000000" fill-rule="nonzero" fill-opacity="1"></path><path clip-path="url(#clip210)" d="M2274.48 1517.37 Q2270.87 1517.37 2269.04 1520.93 Q2267.23 1524.47 2267.23 1531.6 Q2267.23 1538.71 2269.04 1542.27 Q2270.87 1545.82 2274.48 1545.82 Q2278.11 1545.82 2279.92 1542.27 Q2281.75 1538.71 2281.75 1531.6 Q2281.75 1524.47 2279.92 1520.93 Q2278.11 1517.37 2274.48 1517.37 M2274.48 1513.66 Q2280.29 1513.66 2283.34 1518.27 Q2286.42 1522.85 2286.42 1531.6 Q2286.42 1540.33 2283.34 1544.94 Q2280.29 1549.52 2274.48 1549.52 Q2268.67 1549.52 2265.59 1544.94 Q2262.53 1540.33 2262.53 1531.6 Q2262.53 1522.85 2265.59 1518.27 Q2268.67 1513.66 2274.48 1513.66 Z" fill="#000000" fill-rule="nonzero" fill-opacity="1"></path><path clip-path="url(#clip210)" d="M2304.64 1517.37 Q2301.03 1517.37 2299.2 1520.93 Q2297.39 1524.47 2297.39 1531.6 Q2297.39 1538.71 2299.2 1542.27 Q2301.03 1545.82 2304.64 1545.82 Q2308.27 1545.82 2310.08 1542.27 Q2311.91 1538.71 2311.91 1531.6 Q2311.91 1524.47 2310.08 1520.93 Q2308.27 1517.37 2304.64 1517.37 M2304.64 1513.66 Q2310.45 1513.66 2313.51 1518.27 Q2316.58 1522.85 2316.58 1531.6 Q2316.58 1540.33 2313.51 1544.94 Q2310.45 1549.52 2304.64 1549.52 Q2298.83 1549.52 2295.75 1544.94 Q2292.7 1540.33 2292.7 1531.6 Q2292.7 1522.85 2295.75 1518.27 Q2298.83 1513.66 2304.64 1513.66 Z" fill="#000000" fill-rule="nonzero" fill-opacity="1"></path><path clip-path="url(#clip210)" d="M2334.8 1517.37 Q2331.19 1517.37 2329.36 1520.93 Q2327.56 1524.47 2327.56 1531.6 Q2327.56 1538.71 2329.36 1542.27 Q2331.19 1545.82 2334.8 1545.82 Q2338.44 1545.82 2340.24 1542.27 Q2342.07 1538.71 2342.07 1531.6 Q2342.07 1524.47 2340.24 1520.93 Q2338.44 1517.37 2334.8 1517.37 M2334.8 1513.66 Q2340.61 1513.66 2343.67 1518.27 Q2346.75 1522.85 2346.75 1531.6 Q2346.75 1540.33 2343.67 1544.94 Q2340.61 1549.52 2334.8 1549.52 Q2328.99 1549.52 2325.91 1544.94 Q2322.86 1540.33 2322.86 1531.6 Q2322.86 1522.85 2325.91 1518.27 Q2328.99 1513.66 2334.8 1513.66 Z" fill="#000000" fill-rule="nonzero" fill-opacity="1"></path><polyline clip-path="url(#clip212)" style="stroke:#000000; stroke-linecap:round; stroke-linejoin:round; stroke-width:2; stroke-opacity:0.1; fill:none" points="156.598,1445.72 2352.76,1445.72 "></polyline>
<polyline clip-path="url(#clip212)" style="stroke:#000000; stroke-linecap:round; stroke-linejoin:round; stroke-width:2; stroke-opacity:0.1; fill:none" points="156.598,1175.72 2352.76,1175.72 "></polyline>
<polyline clip-path="url(#clip212)" style="stroke:#000000; stroke-linecap:round; stroke-linejoin:round; stroke-width:2; stroke-opacity:0.1; fill:none" points="156.598,905.732 2352.76,905.732 "></polyline>
<polyline clip-path="url(#clip212)" style="stroke:#000000; stroke-linecap:round; stroke-linejoin:round; stroke-width:2; stroke-opacity:0.1; fill:none" points="156.598,635.74 2352.76,635.74 "></polyline>
<polyline clip-path="url(#clip212)" style="stroke:#000000; stroke-linecap:round; stroke-linejoin:round; stroke-width:2; stroke-opacity:0.1; fill:none" points="156.598,365.749 2352.76,365.749 "></polyline>
<polyline clip-path="url(#clip212)" style="stroke:#000000; stroke-linecap:round; stroke-linejoin:round; stroke-width:2; stroke-opacity:0.1; fill:none" points="156.598,95.7569 2352.76,95.7569 "></polyline>
<polyline clip-path="url(#clip210)" style="stroke:#000000; stroke-linecap:round; stroke-linejoin:round; stroke-width:4; stroke-opacity:1; fill:none" points="156.598,1486.45 156.598,47.2441 "></polyline>
<polyline clip-path="url(#clip210)" style="stroke:#000000; stroke-linecap:round; stroke-linejoin:round; stroke-width:4; stroke-opacity:1; fill:none" points="156.598,1445.72 175.496,1445.72 "></polyline>
<polyline clip-path="url(#clip210)" style="stroke:#000000; stroke-linecap:round; stroke-linejoin:round; stroke-width:4; stroke-opacity:1; fill:none" points="156.598,1175.72 175.496,1175.72 "></polyline>
<polyline clip-path="url(#clip210)" style="stroke:#000000; stroke-linecap:round; stroke-linejoin:round; stroke-width:4; stroke-opacity:1; fill:none" points="156.598,905.732 175.496,905.732 "></polyline>
<polyline clip-path="url(#clip210)" style="stroke:#000000; stroke-linecap:round; stroke-linejoin:round; stroke-width:4; stroke-opacity:1; fill:none" points="156.598,635.74 175.496,635.74 "></polyline>
<polyline clip-path="url(#clip210)" style="stroke:#000000; stroke-linecap:round; stroke-linejoin:round; stroke-width:4; stroke-opacity:1; fill:none" points="156.598,365.749 175.496,365.749 "></polyline>
<polyline clip-path="url(#clip210)" style="stroke:#000000; stroke-linecap:round; stroke-linejoin:round; stroke-width:4; stroke-opacity:1; fill:none" points="156.598,95.7569 175.496,95.7569 "></polyline>
<path clip-path="url(#clip210)" d="M63.4226 1431.51 Q59.8115 1431.51 57.9828 1435.08 Q56.1773 1438.62 56.1773 1445.75 Q56.1773 1452.86 57.9828 1456.42 Q59.8115 1459.96 63.4226 1459.96 Q67.0569 1459.96 68.8624 1456.42 Q70.6911 1452.86 70.6911 1445.75 Q70.6911 1438.62 68.8624 1435.08 Q67.0569 1431.51 63.4226 1431.51 M63.4226 1427.81 Q69.2328 1427.81 72.2883 1432.42 Q75.367 1437 75.367 1445.75 Q75.367 1454.48 72.2883 1459.08 Q69.2328 1463.67 63.4226 1463.67 Q57.6125 1463.67 54.5338 1459.08 Q51.4782 1454.48 51.4782 1445.75 Q51.4782 1437 54.5338 1432.42 Q57.6125 1427.81 63.4226 1427.81 Z" fill="#000000" fill-rule="nonzero" fill-opacity="1"></path><path clip-path="url(#clip210)" d="M83.5845 1457.12 L88.4688 1457.12 L88.4688 1463 L83.5845 1463 L83.5845 1457.12 Z" fill="#000000" fill-rule="nonzero" fill-opacity="1"></path><path clip-path="url(#clip210)" d="M108.654 1431.51 Q105.043 1431.51 103.214 1435.08 Q101.409 1438.62 101.409 1445.75 Q101.409 1452.86 103.214 1456.42 Q105.043 1459.96 108.654 1459.96 Q112.288 1459.96 114.094 1456.42 Q115.922 1452.86 115.922 1445.75 Q115.922 1438.62 114.094 1435.08 Q112.288 1431.51 108.654 1431.51 M108.654 1427.81 Q114.464 1427.81 117.52 1432.42 Q120.598 1437 120.598 1445.75 Q120.598 1454.48 117.52 1459.08 Q114.464 1463.67 108.654 1463.67 Q102.844 1463.67 99.765 1459.08 Q96.7095 1454.48 96.7095 1445.75 Q96.7095 1437 99.765 1432.42 Q102.844 1427.81 108.654 1427.81 Z" fill="#000000" fill-rule="nonzero" fill-opacity="1"></path><path clip-path="url(#clip210)" d="M64.6495 1161.52 Q61.0384 1161.52 59.2097 1165.09 Q57.4041 1168.63 57.4041 1175.76 Q57.4041 1182.87 59.2097 1186.43 Q61.0384 1189.97 64.6495 1189.97 Q68.2837 1189.97 70.0892 1186.43 Q71.9179 1182.87 71.9179 1175.76 Q71.9179 1168.63 70.0892 1165.09 Q68.2837 1161.52 64.6495 1161.52 M64.6495 1157.82 Q70.4596 1157.82 73.5152 1162.43 Q76.5938 1167.01 76.5938 1175.76 Q76.5938 1184.49 73.5152 1189.09 Q70.4596 1193.68 64.6495 1193.68 Q58.8393 1193.68 55.7606 1189.09 Q52.7051 1184.49 52.7051 1175.76 Q52.7051 1167.01 55.7606 1162.43 Q58.8393 1157.82 64.6495 1157.82 Z" fill="#000000" fill-rule="nonzero" fill-opacity="1"></path><path clip-path="url(#clip210)" d="M84.8114 1187.12 L89.6956 1187.12 L89.6956 1193 L84.8114 1193 L84.8114 1187.12 Z" fill="#000000" fill-rule="nonzero" fill-opacity="1"></path><path clip-path="url(#clip210)" d="M100.691 1189.07 L108.33 1189.07 L108.33 1162.7 L100.02 1164.37 L100.02 1160.11 L108.283 1158.44 L112.959 1158.44 L112.959 1189.07 L120.598 1189.07 L120.598 1193 L100.691 1193 L100.691 1189.07 Z" fill="#000000" fill-rule="nonzero" fill-opacity="1"></path><path clip-path="url(#clip210)" d="M65.0198 891.531 Q61.4087 891.531 59.58 895.096 Q57.7745 898.637 57.7745 905.767 Q57.7745 912.873 59.58 916.438 Q61.4087 919.98 65.0198 919.98 Q68.6541 919.98 70.4596 916.438 Q72.2883 912.873 72.2883 905.767 Q72.2883 898.637 70.4596 895.096 Q68.6541 891.531 65.0198 891.531 M65.0198 887.827 Q70.83 887.827 73.8855 892.434 Q76.9642 897.017 76.9642 905.767 Q76.9642 914.494 73.8855 919.1 Q70.83 923.684 65.0198 923.684 Q59.2097 923.684 56.131 919.1 Q53.0754 914.494 53.0754 905.767 Q53.0754 897.017 56.131 892.434 Q59.2097 887.827 65.0198 887.827 Z" fill="#000000" fill-rule="nonzero" fill-opacity="1"></path><path clip-path="url(#clip210)" d="M85.1818 917.133 L90.066 917.133 L90.066 923.012 L85.1818 923.012 L85.1818 917.133 Z" fill="#000000" fill-rule="nonzero" fill-opacity="1"></path><path clip-path="url(#clip210)" d="M104.279 919.077 L120.598 919.077 L120.598 923.012 L98.6539 923.012 L98.6539 919.077 Q101.316 916.322 105.899 911.693 Q110.506 907.04 111.686 905.698 Q113.932 903.174 114.811 901.438 Q115.714 899.679 115.714 897.989 Q115.714 895.235 113.77 893.499 Q111.848 891.762 108.746 891.762 Q106.547 891.762 104.094 892.526 Q101.663 893.29 98.8854 894.841 L98.8854 890.119 Q101.709 888.985 104.163 888.406 Q106.617 887.827 108.654 887.827 Q114.024 887.827 117.219 890.512 Q120.413 893.198 120.413 897.688 Q120.413 899.818 119.603 901.739 Q118.816 903.637 116.709 906.23 Q116.131 906.901 113.029 910.119 Q109.927 913.313 104.279 919.077 Z" fill="#000000" fill-rule="nonzero" fill-opacity="1"></path><path clip-path="url(#clip210)" d="M64.0708 621.539 Q60.4597 621.539 58.631 625.104 Q56.8254 628.646 56.8254 635.775 Q56.8254 642.882 58.631 646.446 Q60.4597 649.988 64.0708 649.988 Q67.705 649.988 69.5105 646.446 Q71.3392 642.882 71.3392 635.775 Q71.3392 628.646 69.5105 625.104 Q67.705 621.539 64.0708 621.539 M64.0708 617.835 Q69.8809 617.835 72.9365 622.442 Q76.0151 627.025 76.0151 635.775 Q76.0151 644.502 72.9365 649.108 Q69.8809 653.692 64.0708 653.692 Q58.2606 653.692 55.1819 649.108 Q52.1264 644.502 52.1264 635.775 Q52.1264 627.025 55.1819 622.442 Q58.2606 617.835 64.0708 617.835 Z" fill="#000000" fill-rule="nonzero" fill-opacity="1"></path><path clip-path="url(#clip210)" d="M84.2327 647.141 L89.1169 647.141 L89.1169 653.02 L84.2327 653.02 L84.2327 647.141 Z" fill="#000000" fill-rule="nonzero" fill-opacity="1"></path><path clip-path="url(#clip210)" d="M113.469 634.386 Q116.825 635.104 118.7 637.372 Q120.598 639.641 120.598 642.974 Q120.598 648.09 117.08 650.891 Q113.561 653.692 107.08 653.692 Q104.904 653.692 102.589 653.252 Q100.297 652.835 97.8437 651.979 L97.8437 647.465 Q99.7882 648.599 102.103 649.178 Q104.418 649.757 106.941 649.757 Q111.339 649.757 113.631 648.02 Q115.945 646.284 115.945 642.974 Q115.945 639.919 113.793 638.206 Q111.663 636.47 107.844 636.47 L103.816 636.47 L103.816 632.627 L108.029 632.627 Q111.478 632.627 113.307 631.261 Q115.135 629.872 115.135 627.28 Q115.135 624.618 113.237 623.206 Q111.362 621.771 107.844 621.771 Q105.922 621.771 103.723 622.187 Q101.524 622.604 98.8854 623.484 L98.8854 619.317 Q101.547 618.576 103.862 618.206 Q106.2 617.835 108.26 617.835 Q113.584 617.835 116.686 620.266 Q119.788 622.673 119.788 626.794 Q119.788 629.664 118.145 631.655 Q116.501 633.622 113.469 634.386 Z" fill="#000000" fill-rule="nonzero" fill-opacity="1"></path><path clip-path="url(#clip210)" d="M62.9365 351.547 Q59.3254 351.547 57.4967 355.112 Q55.6912 358.654 55.6912 365.783 Q55.6912 372.89 57.4967 376.455 Q59.3254 379.996 62.9365 379.996 Q66.5707 379.996 68.3763 376.455 Q70.205 372.89 70.205 365.783 Q70.205 358.654 68.3763 355.112 Q66.5707 351.547 62.9365 351.547 M62.9365 347.844 Q68.7467 347.844 71.8022 352.45 Q74.8809 357.033 74.8809 365.783 Q74.8809 374.51 71.8022 379.117 Q68.7467 383.7 62.9365 383.7 Q57.1264 383.7 54.0477 379.117 Q50.9921 374.51 50.9921 365.783 Q50.9921 357.033 54.0477 352.45 Q57.1264 347.844 62.9365 347.844 Z" fill="#000000" fill-rule="nonzero" fill-opacity="1"></path><path clip-path="url(#clip210)" d="M83.0984 377.149 L87.9827 377.149 L87.9827 383.029 L83.0984 383.029 L83.0984 377.149 Z" fill="#000000" fill-rule="nonzero" fill-opacity="1"></path><path clip-path="url(#clip210)" d="M111.015 352.543 L99.2095 370.992 L111.015 370.992 L111.015 352.543 M109.788 348.469 L115.668 348.469 L115.668 370.992 L120.598 370.992 L120.598 374.881 L115.668 374.881 L115.668 383.029 L111.015 383.029 L111.015 374.881 L95.4132 374.881 L95.4132 370.367 L109.788 348.469 Z" fill="#000000" fill-rule="nonzero" fill-opacity="1"></path><path clip-path="url(#clip210)" d="M64.418 81.5556 Q60.8069 81.5556 58.9782 85.1203 Q57.1726 88.662 57.1726 95.7916 Q57.1726 102.898 58.9782 106.463 Q60.8069 110.004 64.418 110.004 Q68.0522 110.004 69.8578 106.463 Q71.6865 102.898 71.6865 95.7916 Q71.6865 88.662 69.8578 85.1203 Q68.0522 81.5556 64.418 81.5556 M64.418 77.8519 Q70.2281 77.8519 73.2837 82.4583 Q76.3624 87.0416 76.3624 95.7916 Q76.3624 104.518 73.2837 109.125 Q70.2281 113.708 64.418 113.708 Q58.6078 113.708 55.5291 109.125 Q52.4736 104.518 52.4736 95.7916 Q52.4736 87.0416 55.5291 82.4583 Q58.6078 77.8519 64.418 77.8519 Z" fill="#000000" fill-rule="nonzero" fill-opacity="1"></path><path clip-path="url(#clip210)" d="M84.5799 107.157 L89.4641 107.157 L89.4641 113.037 L84.5799 113.037 L84.5799 107.157 Z" fill="#000000" fill-rule="nonzero" fill-opacity="1"></path><path clip-path="url(#clip210)" d="M99.6956 78.4769 L118.052 78.4769 L118.052 82.412 L103.978 82.412 L103.978 90.8842 Q104.996 90.537 106.015 90.3749 Q107.033 90.1898 108.052 90.1898 Q113.839 90.1898 117.219 93.361 Q120.598 96.5323 120.598 101.949 Q120.598 107.528 117.126 110.629 Q113.654 113.708 107.334 113.708 Q105.159 113.708 102.89 113.338 Q100.645 112.967 98.2372 112.227 L98.2372 107.528 Q100.321 108.662 102.543 109.217 Q104.765 109.773 107.242 109.773 Q111.246 109.773 113.584 107.667 Q115.922 105.56 115.922 101.949 Q115.922 98.3379 113.584 96.2314 Q111.246 94.1249 107.242 94.1249 Q105.367 94.1249 103.492 94.5416 Q101.64 94.9583 99.6956 95.8379 L99.6956 78.4769 Z" fill="#000000" fill-rule="nonzero" fill-opacity="1"></path><polyline clip-path="url(#clip212)" style="stroke:#009af9; stroke-linecap:round; stroke-linejoin:round; stroke-width:4; stroke-opacity:1; fill:none" points="218.754,96.4313 220.828,98.4476 222.901,95.6689 224.975,92.1169 227.049,87.9763 229.123,95.0283 231.197,103.193 233.271,112.389 235.345,107.408 237.419,118.381 239.493,130.081 241.567,125.391 243.641,138.191 245.715,151.348 247.789,164.729 249.862,160.429 251.936,156.126 254.01,151.771 256.084,164.73 258.158,160.166 260.232,172.125 262.306,167.322 264.38,177.805 266.454,187.383 268.528,195.959 270.602,191.364 272.676,187.108 274.75,183.35 276.823,180.266 278.897,182.835 280.971,184.062 283.045,183.936 285.119,185.404 287.193,182.973 289.267,187.067 291.341,192.41 293.415,187.97 295.489,183.2 297.563,178.243 299.637,173.216 301.71,168.208 303.784,179.604 305.858,191.652 307.932,186.991 310.006,182.456 312.08,178.018 314.154,191.453 316.228,187.09 318.302,182.691 320.376,195.772 322.45,208.459 324.524,203.766 326.598,215.306 328.671,226.087 330.745,221.174 332.819,230.141 334.893,238.052 336.967,233.647 339.041,239.241 341.115,243.575 343.189,241.039 345.263,239.477 347.337,239.079 349.411,238.181 351.485,240.431 353.558,243.978 355.632,248.782 357.706,254.794 359.78,250.147 361.854,258.411 363.928,267.669 366.002,277.828 368.076,272.915 370.15,284.591 372.224,296.842 374.298,292.355 376.372,287.995 378.446,283.726 380.519,279.501 382.593,275.269 384.667,288.388 386.741,284.02 388.815,296.358 390.889,291.755 392.963,302.821 395.037,313.066 397.111,308.302 399.185,303.622 401.259,310.893 403.333,306.778 405.407,303.166 407.48,300.232 409.554,302.605 411.628,303.635 413.702,303.312 415.776,301.755 417.85,299.162 419.924,303.435 421.998,299.381 424.072,306.067 426.146,301.256 428.22,310.088 430.294,319.85 432.367,314.886 434.441,310.018 436.515,305.28 438.589,317.802 440.663,313.344 442.737,326.505 444.811,322.222 446.885,317.956 448.959,331.096 451.033,326.736 453.107,339.194 455.181,351.104 457.255,346.44 459.328,356.941 461.402,352.185 463.476,347.481 465.55,355.125 467.624,350.888 469.698,356.222 471.772,353.061 473.846,355.874 475.92,354.513 477.994,354.311 480.068,355.391 482.142,357.749 484.216,354.725 486.289,350.972 488.363,357.088 490.437,364.318 492.511,372.59 494.585,367.679 496.659,362.771 498.733,373.718 500.807,385.322 502.881,380.791 504.955,376.402 507.029,372.132 509.103,367.943 511.176,363.788 513.25,376.925 515.324,389.828 517.398,385.528 519.472,381.108 521.546,392.626 523.62,403.417 525.694,398.731 527.768,407.798 529.842,415.84 531.916,422.774 533.99,418.846 536.064,423.424 538.137,426.721 540.211,424.967 542.285,424.27 544.359,423.708 546.433,421.948 548.507,425.1 550.581,421.583 552.655,417.447 554.729,424.232 556.803,419.403 558.877,414.425 560.951,409.406 563.024,404.429 565.098,399.552 567.172,394.802 569.246,407.254 571.32,402.776 573.394,415.792 575.468,428.875 577.542,441.892 579.616,437.6 581.69,450.133 583.764,462.21 585.838,457.703 587.912,468.559 589.985,478.613 592.059,474.011 594.133,469.49 596.207,476.683 598.281,482.726 600.355,479.247 602.429,476.393 604.503,478.805 606.577,477.781 608.651,477.905 610.725,479.271 612.799,476.901 614.873,473.647 616.946,469.698 619.02,476.008 621.094,483.374 623.168,491.721 625.242,486.737 627.316,496.851 629.39,507.671 631.464,502.958 633.538,498.388 635.612,493.957 637.686,489.643 639.76,502.494 641.833,498.321 643.907,494.142 645.981,489.914 648.055,502.092 650.129,513.747 652.203,509.278 654.277,519.602 656.351,515.044 658.425,523.628 660.499,519.266 662.573,525.771 664.647,531.1 666.721,535.199 668.794,532.871 670.868,531.425 672.942,531.799 675.016,530.863 677.09,533.047 679.164,530.087 681.238,534.689 683.312,540.4 685.386,547.209 687.46,555.007 689.534,563.718 691.608,558.821 693.681,569.158 695.755,580.123 697.829,575.589 699.903,571.201 701.977,583.508 704.051,595.977 706.125,591.94 708.199,604.417 710.273,616.672 712.347,612.633 714.421,608.511 716.495,619.516 718.569,615.236 720.642,610.894 722.716,619.674 724.79,627.476 726.864,634.221 728.938,630.541 731.012,627.298 733.086,624.643 735.16,626.869 737.234,627.812 739.308,627.462 741.382,629.023 743.456,626.516 745.53,623.17 747.603,628.28 749.677,623.871 751.751,619.141 753.825,627.402 755.899,622.474 757.973,617.571 760.047,612.757 762.121,623.989 764.195,635.644 766.269,647.603 768.343,643.419 770.417,639.326 772.49,651.625 774.564,647.615 776.638,659.488 778.712,655.415 780.786,666.386 782.86,662.191 784.934,671.826 787.008,667.601 789.082,675.519 791.156,682.413 793.23,678.746 795.304,675.465 797.378,679.106 799.451,681.51 801.525,682.654 803.599,682.722 805.673,683.889 807.747,681.637 809.821,685.178 811.895,681.404 813.969,677.09 816.043,683.883 818.117,691.643 820.191,700.228 822.265,709.555 824.339,719.53 826.412,714.944 828.486,710.503 830.56,721.982 832.634,733.683 834.708,729.708 836.782,725.81 838.856,737.63 840.93,749.188 843.004,745.344 845.078,741.438 847.152,737.458 849.226,733.412 851.299,742.358 853.373,750.416 855.447,746.53 857.521,752.68 859.595,749.353 861.669,746.465 863.743,749.386 865.817,751.085 867.891,750.614 869.965,749.952 872.039,751.751 874.113,754.62 876.187,751.271 878.26,747.315 880.334,753.414 882.408,760.41 884.482,768.306 886.556,763.62 888.63,773.04 890.704,768.535 892.778,764.164 894.852,775.198 896.926,786.493 899,782.61 901.074,778.82 903.147,775.082 905.221,786.54 907.295,782.814 909.369,793.606 911.443,803.854 913.517,800 915.591,796.092 917.665,804.317 919.739,811.626 921.813,807.998 923.887,813.377 925.961,810.426 928.035,807.973 930.108,810.157 932.182,809.245 934.256,809.277 936.33,810.321 938.404,812.45 940.478,815.599 942.552,812.209 944.626,808.302 946.7,804.037 948.774,799.556 950.848,794.98 952.922,803.931 954.996,799.479 957.069,795.146 959.143,790.953 961.217,802.031 963.291,813.302 965.365,809.553 967.439,820.965 969.513,817.34 971.587,813.7 973.661,824.491 975.735,820.766 977.809,830.571 979.883,839.682 981.956,835.862 984.03,832.059 986.104,828.343 988.178,824.804 990.252,821.554 992.326,825.435 994.4,828.158 996.474,826.798 998.548,827.268 1000.62,827.891 1002.7,829.577 1004.77,827.083 1006.84,823.847 1008.92,820.041 1010.99,825.981 1013.07,821.591 1015.14,817.065 1017.21,812.508 1019.29,821.83 1021.36,831.686 1023.43,827.507 1025.51,823.472 1027.58,819.571 1029.66,815.782 1031.73,812.068 1033.8,823.422 1035.88,834.541 1037.95,830.89 1040.03,827.176 1042.1,823.385 1044.17,819.517 1046.25,815.593 1048.32,811.657 1050.4,818.86 1052.47,815.18 1054.54,820.452 1056.62,817.483 1058.69,820.619 1060.77,818.941 1062.84,819.827 1064.91,820.065 1066.99,818.719 1069.06,816.396 1071.14,819.993 1073.21,824.561 1075.28,830.056 1077.36,825.828 1079.43,833.199 1081.5,841.315 1083.58,836.969 1085.65,832.7 1087.73,828.547 1089.8,824.529 1091.87,835.449 1093.95,846.539 1096.02,857.687 1098.1,868.779 1100.17,865.284 1102.24,876.016 1104.32,872.468 1106.39,882.412 1108.47,878.742 1110.54,887.506 1112.61,883.779 1114.69,891.019 1116.76,897.326 1118.84,902.636 1120.91,899.74 1122.98,903.042 1125.06,905.216 1127.13,906.243 1129.2,906.293 1131.28,905.159 1133.35,903.017 1135.43,906.258 1137.5,902.764 1139.57,907.929 1141.65,903.698 1143.72,899.257 1145.8,894.722 1147.87,903.262 1149.94,912.342 1152.02,908.11 1154.09,904.018 1156.17,914.385 1158.24,924.904 1160.31,935.469 1162.39,931.979 1164.46,928.535 1166.54,938.815 1168.61,935.401 1170.68,931.945 1172.76,928.437 1174.83,924.881 1176.91,932.745 1178.98,929.245 1181.05,925.833 1183.13,922.59 1185.2,927.107 1187.27,924.617 1189.35,922.645 1191.42,924.15 1193.5,924.512 1195.57,923.726 1197.64,925.524 1199.72,922.941 1201.79,926.733 1203.87,923.015 1205.94,928.646 1208.01,935.051 1210.09,942.168 1212.16,950.011 1214.24,958.419 1216.31,967.309 1218.38,963.45 1220.46,959.727 1222.53,969.758 1224.61,966.327 1226.68,976.583 1228.75,986.738 1230.83,983.54 1232.9,980.325 1234.97,977.063 1237.05,986.128 1239.12,982.779 1241.2,990.688 1243.27,997.836 1245.34,1004.15 1247.42,1001.07 1249.49,998.2 1251.57,1001.95 1253.64,999.902 1255.71,998.396 1257.79,997.556 1259.86,997.52 1261.94,998.477 1264.01,996.58 1266.08,999.506 1268.16,1003.27 1270.23,1007.83 1272.31,1004.12 1274.38,1000.21 1276.45,1007.17 1278.53,1003.24 1280.6,999.362 1282.68,1008.17 1284.75,1004.57 1286.82,1014.08 1288.9,1023.73 1290.97,1020.57 1293.04,1017.47 1295.12,1014.39 1297.19,1011.3 1299.27,1020.69 1301.34,1017.54 1303.41,1026.07 1305.49,1033.98 1307.56,1030.75 1309.64,1037.32 1311.71,1043.06 1313.78,1047.9 1315.86,1045.34 1317.93,1043.12 1320.01,1045.33 1322.08,1046.51 1324.15,1046.63 1326.23,1047.4 1328.3,1045.67 1330.38,1048.31 1332.45,1051.75 1334.52,1055.94 1336.6,1060.85 1338.67,1057.13 1340.74,1063.48 1342.82,1059.69 1344.89,1055.92 1346.97,1052.25 1349.04,1048.69 1351.11,1057.72 1353.19,1054.47 1355.26,1063.84 1357.34,1073.19 1359.41,1070.26 1361.48,1079.38 1363.56,1088.18 1365.63,1085.29 1367.71,1082.35 1369.78,1089.94 1371.85,1086.95 1373.93,1093.31 1376,1098.89 1378.08,1103.63 1380.15,1101.21 1382.22,1104.29 1384.3,1106.42 1386.37,1105.43 1388.44,1105.06 1390.52,1104.58 1392.59,1105.83 1394.67,1103.73 1396.74,1100.97 1398.81,1097.69 1400.89,1102.44 1402.96,1098.66 1405.04,1104.77 1407.11,1111.39 1409.18,1107.65 1411.26,1115.33 1413.33,1123.32 1415.41,1131.53 1417.48,1128.44 1419.55,1136.98 1421.63,1134.16 1423.7,1142.7 1425.78,1151.04 1427.85,1159.07 1429.92,1156.5 1432,1163.84 1434.07,1161.26 1436.15,1167.62 1438.22,1173.33 1440.29,1178.32 1442.37,1182.54 1444.44,1180.51 1446.51,1178.71 1448.59,1180.74 1450.66,1181.89 1452.74,1182.12 1454.81,1182.63 1456.88,1181.26 1458.96,1183.34 1461.03,1180.7 1463.11,1184.22 1465.18,1188.32 1467.25,1192.96 1469.33,1198.08 1471.4,1203.66 1473.48,1200.29 1475.55,1196.98 1477.62,1203.94 1479.7,1211.1 1481.77,1218.37 1483.85,1225.69 1485.92,1232.99 1487.99,1230.65 1490.07,1237.82 1492.14,1244.74 1494.21,1251.34 1496.29,1249.23 1498.36,1247.11 1500.44,1244.96 1502.51,1250.1 1504.58,1248.01 1506.66,1245.97 1508.73,1244.02 1510.81,1242.21 1512.88,1240.61 1514.95,1239.3 1517.03,1238.35 1519.1,1238.83 1521.18,1239.05 1523.25,1238.09 1525.32,1236.41 1527.4,1238.8 1529.47,1236.28 1531.55,1233.44 1533.62,1230.38 1535.69,1235.29 1537.77,1240.59 1539.84,1237.59 1541.92,1234.66 1543.99,1231.83 1546.06,1238.68 1548.14,1245.61 1550.21,1252.55 1552.28,1250.31 1554.36,1257.22 1556.43,1255.12 1558.51,1253.03 1560.58,1259.42 1562.65,1265.41 1564.73,1263.36 1566.8,1268.52 1568.88,1266.49 1570.95,1264.48 1573.02,1262.52 1575.1,1260.66 1577.17,1258.97 1579.25,1260.98 1581.32,1259.97 1583.39,1259.35 1585.47,1259.41 1587.54,1258.67 1589.62,1260.04 1591.69,1261.94 1593.76,1264.35 1595.84,1267.26 1597.91,1264.75 1599.98,1268.74 1602.06,1266.07 1604.13,1270.99 1606.21,1268.39 1608.28,1274.09 1610.35,1279.99 1612.43,1277.75 1614.5,1275.58 1616.58,1273.49 1618.65,1271.45 1620.72,1278.01 1622.8,1284.37 1624.87,1290.47 1626.95,1288.55 1629.02,1286.58 1631.09,1291.86 1633.17,1289.85 1635.24,1287.8 1637.32,1285.76 1639.39,1283.75 1641.46,1281.82 1643.54,1280.03 1645.61,1278.46 1647.69,1279.98 1649.76,1280.75 1651.83,1280.65 1653.91,1281.02 1655.98,1280.04 1658.05,1278.49 1660.13,1276.5 1662.2,1279.5 1664.28,1277.09 1666.35,1281.12 1668.42,1278.6 1670.5,1283.55 1672.57,1288.77 1674.65,1294.21 1676.72,1299.81 1678.79,1305.53 1680.87,1303.63 1682.94,1309.54 1685.02,1307.77 1687.09,1305.99 1689.16,1311.82 1691.24,1317.4 1693.31,1322.67 1695.39,1327.57 1697.46,1332.07 1699.53,1336.1 1701.61,1334.38 1703.68,1332.66 1705.75,1335.47 1707.83,1337.69 1709.9,1336.5 1711.98,1335.53 1714.05,1336.27 1716.12,1336.09 1718.2,1335.76 1720.27,1334.81 1722.35,1336.26 1724.42,1338.08 1726.49,1340.25 1728.57,1342.77 1730.64,1340.86 1732.72,1338.86 1734.79,1336.81 1736.86,1334.76 1738.94,1339.31 1741.01,1343.99 1743.09,1348.75 1745.16,1347.11 1747.23,1352.05 1749.31,1350.55 1751.38,1355.46 1753.46,1354.01 1755.53,1352.54 1757.6,1357.11 1759.68,1361.37 1761.75,1359.86 1763.82,1363.54 1765.9,1366.78 1767.97,1365.35 1770.05,1363.93 1772.12,1366.08 1774.19,1367.68 1776.27,1366.83 1778.34,1367.53 1780.42,1367.64 1782.49,1367.95 1784.56,1367.15 1786.64,1365.89 1788.71,1367.61 1790.79,1365.88 1792.86,1363.95 1794.93,1361.89 1797.01,1365.22 1799.08,1363.2 1801.16,1367.03 1803.23,1365.18 1805.3,1369.4 1807.38,1367.77 1809.45,1366.2 1811.52,1370.69 1813.6,1369.3 1815.67,1373.66 1817.75,1377.81 1819.82,1381.71 1821.89,1380.53 1823.97,1379.32 1826.04,1382.57 1828.12,1381.4 1830.19,1380.22 1832.26,1379.06 1834.34,1377.92 1836.41,1379.65 1838.49,1378.81 1840.56,1378.1 1842.63,1378.67 1844.71,1378.69 1846.78,1378.17 1848.86,1379.01 1850.93,1377.71 1853,1376.06 1855.08,1378.21 1857.15,1380.59 1859.22,1383.16 1861.3,1385.91 1863.37,1384.16 1865.45,1382.41 1867.52,1380.69 1869.59,1384.45 1871.67,1388.23 1873.74,1391.97 1875.82,1390.71 1877.89,1389.5 1879.96,1388.33 1882.04,1392.08 1884.11,1390.98 1886.19,1389.88 1888.26,1388.76 1890.33,1387.61 1892.41,1386.44 1894.48,1385.25 1896.56,1384.04 1898.63,1386.29 1900.7,1388.07 1902.78,1389.36 1904.85,1388.75 1906.93,1388.3 1909,1388.51 1911.07,1388.2 1913.15,1388.82 1915.22,1387.75 1917.29,1386.31 1919.37,1384.59 1921.44,1382.66 1923.52,1385.34 1925.59,1383.37 1927.66,1386.54 1929.74,1389.8 1931.81,1393.13 1933.89,1391.57 1935.96,1395.14 1938.03,1393.8 1940.11,1392.52 1942.18,1391.3 1944.26,1390.14 1946.33,1393.8 1948.4,1392.73 1950.48,1396.05 1952.55,1395.05 1954.63,1397.89 1956.7,1400.38 1958.77,1399.49 1960.85,1401.35 1962.92,1400.6 1964.99,1401.78 1967.07,1402.5 1969.14,1402.27 1971.22,1402.18 1973.29,1401.94 1975.36,1401.23 1977.44,1402.15 1979.51,1403.26 1981.59,1404.65 1983.66,1406.19 1985.73,1407.89 1987.81,1409.72 1989.88,1411.66 1991.96,1410.3 1994.03,1408.92 1996.1,1407.54 1998.18,1406.19 2000.25,1409.18 2002.33,1408.01 2004.4,1406.89 2006.47,1405.83 2008.55,1409.01 2010.62,1412.02 2012.7,1411.15 2014.77,1410.29 2016.84,1409.42 2018.92,1411.97 2020.99,1414.21 2023.06,1416.12 2025.14,1417.67 2027.21,1417.07 2029.29,1418.07 2031.36,1418.68 2033.43,1418.88 2035.51,1418.94 2037.58,1418.57 2039.66,1417.81 2041.73,1418.71 2043.8,1417.43 2045.88,1415.83 2047.95,1417.62 2050.03,1415.91 2052.1,1418.04 2054.17,1420.21 2056.25,1418.69 2058.32,1421.07 2060.4,1423.4 2062.47,1422.23 2064.54,1424.64 2066.62,1426.93 2068.69,1429.09 2070.76,1428.37 2072.84,1427.7 2074.91,1429.66 2076.99,1429.11 2079.06,1430.78 2081.13,1430.31 2083.21,1429.86 2085.28,1431.05 2087.36,1430.68 2089.43,1430.34 2091.5,1430.01 2093.58,1430.5 2095.65,1430.36 2097.73,1430.28 2099.8,1430.18 2101.87,1429.75 2103.95,1430.26 2106.02,1430.88 2108.1,1431.58 2110.17,1432.34 2112.24,1431.37 2114.32,1432.51 2116.39,1431.46 2118.47,1432.85 2120.54,1431.82 2122.61,1433.4 2124.69,1432.47 2126.76,1434.15 2128.83,1435.77 2130.91,1437.31 2132.98,1436.73 2135.06,1436.18 2137.13,1435.66 2139.2,1435.15 2141.28,1434.66 2143.35,1434.18 2145.43,1435.67 2147.5,1435.24 2149.57,1434.81 2151.65,1435.94 2153.72,1436.81 2155.8,1436.51 2157.87,1437.02 2159.94,1437.25 2162.02,1437.2 2164.09,1437.34 2166.17,1436.94 2168.24,1436.26 2170.31,1436.95 2172.39,1437.68 2174.46,1438.43 2176.53,1439.23 2178.61,1440 2180.68,1439.26 2182.76,1440.2 2184.83,1441.09 2186.9,1441.92 2188.98,1442.68 2191.05,1442.26 2193.13,1443.06 2195.2,1442.71 2197.27,1442.36 2199.35,1442.02 2201.42,1442.94 2203.5,1443.74 2205.57,1444.39 2207.64,1444.21 2209.72,1444.73 2211.79,1444.6 2213.87,1444.45 2215.94,1444.83 2218.01,1444.71 2220.09,1444.59 2222.16,1444.44 2224.24,1444.28 2226.31,1444.08 2228.38,1444.35 2230.46,1444.22 2232.53,1444.33 2234.6,1444.31 2236.68,1444.26 2238.75,1444.36 2240.83,1444.41 2242.9,1444.4 2244.97,1444.36 2247.05,1444.46 2249.12,1444.48 2251.2,1444.44 2253.27,1444.32 2255.34,1444.54 2257.42,1444.42 2259.49,1444.69 2261.57,1444.57 2263.64,1444.85 2265.71,1444.76 2267.79,1445.03 2269.86,1444.95 2271.94,1444.85 2274.01,1445.17 2276.08,1445.08 2278.16,1444.96 2280.23,1444.82 2282.3,1444.64 2284.38,1445.1 2286.45,1445.44 2288.53,1445.64 2290.6,1445.72 "></polyline>
<path clip-path="url(#clip210)" d="M2007.5 198.898 L2279.55 198.898 L2279.55 95.2176 L2007.5 95.2176  Z" fill="#ffffff" fill-rule="evenodd" fill-opacity="1"></path>
<polyline clip-path="url(#clip210)" style="stroke:#000000; stroke-linecap:round; stroke-linejoin:round; stroke-width:4; stroke-opacity:1; fill:none" points="2007.5,198.898 2279.55,198.898 2279.55,95.2176 2007.5,95.2176 2007.5,198.898 "></polyline>
<polyline clip-path="url(#clip210)" style="stroke:#009af9; stroke-linecap:round; stroke-linejoin:round; stroke-width:4; stroke-opacity:1; fill:none" points="2031.91,147.058 2178.32,147.058 "></polyline>
<path clip-path="url(#clip210)" d="M2216.56 166.745 Q2214.76 171.375 2213.04 172.787 Q2211.33 174.199 2208.46 174.199 L2205.06 174.199 L2205.06 170.634 L2207.56 170.634 Q2209.32 170.634 2210.29 169.8 Q2211.26 168.967 2212.44 165.865 L2213.2 163.921 L2202.72 138.412 L2207.23 138.412 L2215.33 158.689 L2223.44 138.412 L2227.95 138.412 L2216.56 166.745 Z" fill="#000000" fill-rule="nonzero" fill-opacity="1"></path><path clip-path="url(#clip210)" d="M2235.24 160.402 L2242.88 160.402 L2242.88 134.037 L2234.57 135.703 L2234.57 131.444 L2242.83 129.778 L2247.51 129.778 L2247.51 160.402 L2255.15 160.402 L2255.15 164.338 L2235.24 164.338 L2235.24 160.402 Z" fill="#000000" fill-rule="nonzero" fill-opacity="1"></path></svg>