<svg xmlns="http://www.w3.org/2000/svg" xmlns:xlink="http://www.w3.org/1999/xlink" width="600" height="400" viewBox="0 0 2400 1600">
<defs>
  <clipPath id="clip290">
    <rect x="0" y="0" width="2400" height="1600"></rect>
  </clipPath>
</defs>
<path clip-path="url(#clip290)" d="M0 1600 L2400 1600 L2400 0 L0 0  Z" fill="#ffffff" fill-rule="evenodd" fill-opacity="1"></path>
<defs>
  <clipPath id="clip291">
    <rect x="480" y="0" width="1681" height="1600"></rect>
  </clipPath>
</defs>
<path clip-path="url(#clip290)" d="M156.112 1486.45 L2352.76 1486.45 L2352.76 47.2441 L156.112 47.2441  Z" fill="#ffffff" fill-rule="evenodd" fill-opacity="1"></path>
<defs>
  <clipPath id="clip292">
    <rect x="156" y="47" width="2198" height="1440"></rect>
  </clipPath>
</defs>
<polyline clip-path="url(#clip292)" style="stroke:#000000; stroke-linecap:round; stroke-linejoin:round; stroke-width:2; stroke-opacity:0.1; fill:none" points="216.207,1486.45 216.207,47.2441 "></polyline>
<polyline clip-path="url(#clip292)" style="stroke:#000000; stroke-linecap:round; stroke-linejoin:round; stroke-width:2; stroke-opacity:0.1; fill:none" points="734.802,1486.45 734.802,47.2441 "></polyline>
<polyline clip-path="url(#clip292)" style="stroke:#000000; stroke-linecap:round; stroke-linejoin:round; stroke-width:2; stroke-opacity:0.1; fill:none" points="1253.4,1486.45 1253.4,47.2441 "></polyline>
<polyline clip-path="url(#clip292)" style="stroke:#000000; stroke-linecap:round; stroke-linejoin:round; stroke-width:2; stroke-opacity:0.1; fill:none" points="1771.99,1486.45 1771.99,47.2441 "></polyline>
<polyline clip-path="url(#clip292)" style="stroke:#000000; stroke-linecap:round; stroke-linejoin:round; stroke-width:2; stroke-opacity:0.1; fill:none" points="2290.59,1486.45 2290.59,47.2441 "></polyline>
<polyline clip-path="url(#clip290)" style="stroke:#000000; stroke-linecap:round; stroke-linejoin:round; stroke-width:4; stroke-opacity:1; fill:none" points="156.112,1486.45 2352.76,1486.45 "></polyline>
<polyline clip-path="url(#clip290)" style="stroke:#000000; stroke-linecap:round; stroke-linejoin:round; stroke-width:4; stroke-opacity:1; fill:none" points="216.207,1486.45 216.207,1467.55 "></polyline>
<polyline clip-path="url(#clip290)" style="stroke:#000000; stroke-linecap:round; stroke-linejoin:round; stroke-width:4; stroke-opacity:1; fill:none" points="734.802,1486.45 734.802,1467.55 "></polyline>
<polyline clip-path="url(#clip290)" style="stroke:#000000; stroke-linecap:round; stroke-linejoin:round; stroke-width:4; stroke-opacity:1; fill:none" points="1253.4,1486.45 1253.4,1467.55 "></polyline>
<polyline clip-path="url(#clip290)" style="stroke:#000000; stroke-linecap:round; stroke-linejoin:round; stroke-width:4; stroke-opacity:1; fill:none" points="1771.99,1486.45 1771.99,1467.55 "></polyline>
<polyline clip-path="url(#clip290)" style="stroke:#000000; stroke-linecap:round; stroke-linejoin:round; stroke-width:4; stroke-opacity:1; fill:none" points="2290.59,1486.45 2290.59,1467.55 "></polyline>
<path clip-path="url(#clip290)" d="M216.207 1517.37 Q212.596 1517.37 210.767 1520.93 Q208.962 1524.47 208.962 1531.6 Q208.962 1538.71 210.767 1542.27 Q212.596 1545.82 216.207 1545.82 Q219.841 1545.82 221.647 1542.27 Q223.475 1538.71 223.475 1531.6 Q223.475 1524.47 221.647 1520.93 Q219.841 1517.37 216.207 1517.37 M216.207 1513.66 Q222.017 1513.66 225.073 1518.27 Q228.151 1522.85 228.151 1531.6 Q228.151 1540.33 225.073 1544.94 Q222.017 1549.52 216.207 1549.52 Q210.397 1549.52 207.318 1544.94 Q204.263 1540.33 204.263 1531.6 Q204.263 1522.85 207.318 1518.27 Q210.397 1513.66 216.207 1513.66 Z" fill="#000000" fill-rule="nonzero" fill-opacity="1"></path><path clip-path="url(#clip290)" d="M698.494 1544.91 L714.814 1544.91 L714.814 1548.85 L692.869 1548.85 L692.869 1544.91 Q695.531 1542.16 700.115 1537.53 Q704.721 1532.88 705.902 1531.53 Q708.147 1529.01 709.027 1527.27 Q709.929 1525.51 709.929 1523.82 Q709.929 1521.07 707.985 1519.33 Q706.064 1517.6 702.962 1517.6 Q700.763 1517.6 698.309 1518.36 Q695.878 1519.13 693.101 1520.68 L693.101 1515.95 Q695.925 1514.82 698.378 1514.24 Q700.832 1513.66 702.869 1513.66 Q708.24 1513.66 711.434 1516.35 Q714.628 1519.03 714.628 1523.52 Q714.628 1525.65 713.818 1527.57 Q713.031 1529.47 710.925 1532.07 Q710.346 1532.74 707.244 1535.95 Q704.142 1539.15 698.494 1544.91 Z" fill="#000000" fill-rule="nonzero" fill-opacity="1"></path><path clip-path="url(#clip290)" d="M724.675 1514.29 L743.031 1514.29 L743.031 1518.22 L728.957 1518.22 L728.957 1526.7 Q729.976 1526.35 730.994 1526.19 Q732.013 1526 733.031 1526 Q738.818 1526 742.198 1529.17 Q745.577 1532.34 745.577 1537.76 Q745.577 1543.34 742.105 1546.44 Q738.633 1549.52 732.313 1549.52 Q730.138 1549.52 727.869 1549.15 Q725.624 1548.78 723.216 1548.04 L723.216 1543.34 Q725.3 1544.47 727.522 1545.03 Q729.744 1545.58 732.221 1545.58 Q736.225 1545.58 738.563 1543.48 Q740.901 1541.37 740.901 1537.76 Q740.901 1534.15 738.563 1532.04 Q736.225 1529.94 732.221 1529.94 Q730.346 1529.94 728.471 1530.35 Q726.619 1530.77 724.675 1531.65 L724.675 1514.29 Z" fill="#000000" fill-rule="nonzero" fill-opacity="1"></path><path clip-path="url(#clip290)" d="M764.79 1517.37 Q761.179 1517.37 759.35 1520.93 Q757.545 1524.47 757.545 1531.6 Q757.545 1538.71 759.35 1542.27 Q761.179 1545.82 764.79 1545.82 Q768.424 1545.82 770.23 1542.27 Q772.059 1538.71 772.059 1531.6 Q772.059 1524.47 770.23 1520.93 Q768.424 1517.37 764.79 1517.37 M764.79 1513.66 Q770.6 1513.66 773.656 1518.27 Q776.735 1522.85 776.735 1531.6 Q776.735 1540.33 773.656 1544.94 Q770.6 1549.52 764.79 1549.52 Q758.98 1549.52 755.901 1544.94 Q752.846 1540.33 752.846 1531.6 Q752.846 1522.85 755.901 1518.27 Q758.98 1513.66 764.79 1513.66 Z" fill="#000000" fill-rule="nonzero" fill-opacity="1"></path><path clip-path="url(#clip290)" d="M1213.02 1514.29 L1231.37 1514.29 L1231.37 1518.22 L1217.3 1518.22 L1217.3 1526.7 Q1218.32 1526.35 1219.33 1526.19 Q1220.35 1526 1221.37 1526 Q1227.16 1526 1230.54 1529.17 Q1233.92 1532.34 1233.92 1537.76 Q1233.92 1543.34 1230.45 1546.44 Q1226.97 1549.52 1220.65 1549.52 Q1218.48 1549.52 1216.21 1549.15 Q1213.96 1548.78 1211.56 1548.04 L1211.56 1543.34 Q1213.64 1544.47 1215.86 1545.03 Q1218.08 1545.58 1220.56 1545.58 Q1224.57 1545.58 1226.9 1543.48 Q1229.24 1541.37 1229.24 1537.76 Q1229.24 1534.15 1226.9 1532.04 Q1224.57 1529.94 1220.56 1529.94 Q1218.69 1529.94 1216.81 1530.35 Q1214.96 1530.77 1213.02 1531.65 L1213.02 1514.29 Z" fill="#000000" fill-rule="nonzero" fill-opacity="1"></path><path clip-path="url(#clip290)" d="M1253.13 1517.37 Q1249.52 1517.37 1247.69 1520.93 Q1245.89 1524.47 1245.89 1531.6 Q1245.89 1538.71 1247.69 1542.27 Q1249.52 1545.82 1253.13 1545.82 Q1256.76 1545.82 1258.57 1542.27 Q1260.4 1538.71 1260.4 1531.6 Q1260.4 1524.47 1258.57 1520.93 Q1256.76 1517.37 1253.13 1517.37 M1253.13 1513.66 Q1258.94 1513.66 1262 1518.27 Q1265.08 1522.85 1265.08 1531.6 Q1265.08 1540.33 1262 1544.94 Q1258.94 1549.52 1253.13 1549.52 Q1247.32 1549.52 1244.24 1544.94 Q1241.19 1540.33 1241.19 1531.6 Q1241.19 1522.85 1244.24 1518.27 Q1247.32 1513.66 1253.13 1513.66 Z" fill="#000000" fill-rule="nonzero" fill-opacity="1"></path><path clip-path="url(#clip290)" d="M1283.29 1517.37 Q1279.68 1517.37 1277.85 1520.93 Q1276.05 1524.47 1276.05 1531.6 Q1276.05 1538.71 1277.85 1542.27 Q1279.68 1545.82 1283.29 1545.82 Q1286.93 1545.82 1288.73 1542.27 Q1290.56 1538.71 1290.56 1531.6 Q1290.56 1524.47 1288.73 1520.93 Q1286.93 1517.37 1283.29 1517.37 M1283.29 1513.66 Q1289.1 1513.66 1292.16 1518.27 Q1295.24 1522.85 1295.24 1531.6 Q1295.24 1540.33 1292.16 1544.94 Q1289.1 1549.52 1283.29 1549.52 Q1277.48 1549.52 1274.4 1544.94 Q1271.35 1540.33 1271.35 1531.6 Q1271.35 1522.85 1274.4 1518.27 Q1277.48 1513.66 1283.29 1513.66 Z" fill="#000000" fill-rule="nonzero" fill-opacity="1"></path><path clip-path="url(#clip290)" d="M1730.27 1514.29 L1752.49 1514.29 L1752.49 1516.28 L1739.94 1548.85 L1735.06 1548.85 L1746.86 1518.22 L1730.27 1518.22 L1730.27 1514.29 Z" fill="#000000" fill-rule="nonzero" fill-opacity="1"></path><path clip-path="url(#clip290)" d="M1761.66 1514.29 L1780.01 1514.29 L1780.01 1518.22 L1765.94 1518.22 L1765.94 1526.7 Q1766.96 1526.35 1767.98 1526.19 Q1768.99 1526 1770.01 1526 Q1775.8 1526 1779.18 1529.17 Q1782.56 1532.34 1782.56 1537.76 Q1782.56 1543.34 1779.09 1546.44 Q1775.61 1549.52 1769.3 1549.52 Q1767.12 1549.52 1764.85 1549.15 Q1762.61 1548.78 1760.2 1548.04 L1760.2 1543.34 Q1762.28 1544.47 1764.5 1545.03 Q1766.73 1545.58 1769.2 1545.58 Q1773.21 1545.58 1775.55 1543.48 Q1777.88 1541.37 1777.88 1537.76 Q1777.88 1534.15 1775.55 1532.04 Q1773.21 1529.94 1769.2 1529.94 Q1767.33 1529.94 1765.45 1530.35 Q1763.6 1530.77 1761.66 1531.65 L1761.66 1514.29 Z" fill="#000000" fill-rule="nonzero" fill-opacity="1"></path><path clip-path="url(#clip290)" d="M1801.77 1517.37 Q1798.16 1517.37 1796.33 1520.93 Q1794.53 1524.47 1794.53 1531.6 Q1794.53 1538.71 1796.33 1542.27 Q1798.16 1545.82 1801.77 1545.82 Q1805.41 1545.82 1807.21 1542.27 Q1809.04 1538.71 1809.04 1531.6 Q1809.04 1524.47 1807.21 1520.93 Q1805.41 1517.37 1801.77 1517.37 M1801.77 1513.66 Q1807.58 1513.66 1810.64 1518.27 Q1813.72 1522.85 1813.72 1531.6 Q1813.72 1540.33 1810.64 1544.94 Q1807.58 1549.52 1801.77 1549.52 Q1795.96 1549.52 1792.88 1544.94 Q1789.83 1540.33 1789.83 1531.6 Q1789.83 1522.85 1792.88 1518.27 Q1795.96 1513.66 1801.77 1513.66 Z" fill="#000000" fill-rule="nonzero" fill-opacity="1"></path><path clip-path="url(#clip290)" d="M2235.11 1544.91 L2242.75 1544.91 L2242.75 1518.55 L2234.44 1520.21 L2234.44 1515.95 L2242.71 1514.29 L2247.38 1514.29 L2247.38 1544.91 L2255.02 1544.91 L2255.02 1548.85 L2235.11 1548.85 L2235.11 1544.91 Z" fill="#000000" fill-rule="nonzero" fill-opacity="1"></path><path clip-path="url(#clip290)" d="M2274.46 1517.37 Q2270.85 1517.37 2269.02 1520.93 Q2267.22 1524.47 2267.22 1531.6 Q2267.22 1538.71 2269.02 1542.27 Q2270.85 1545.82 2274.46 1545.82 Q2278.1 1545.82 2279.9 1542.27 Q2281.73 1538.71 2281.73 1531.6 Q2281.73 1524.47 2279.9 1520.93 Q2278.1 1517.37 2274.46 1517.37 M2274.46 1513.66 Q2280.27 1513.66 2283.33 1518.27 Q2286.41 1522.85 2286.41 1531.6 Q2286.41 1540.33 2283.33 1544.94 Q2280.27 1549.52 2274.46 1549.52 Q2268.65 1549.52 2265.58 1544.94 Q2262.52 1540.33 2262.52 1531.6 Q2262.52 1522.85 2265.58 1518.27 Q2268.65 1513.66 2274.46 1513.66 Z" fill="#000000" fill-rule="nonzero" fill-opacity="1"></path><path clip-path="url(#clip290)" d="M2304.63 1517.37 Q2301.01 1517.37 2299.19 1520.93 Q2297.38 1524.47 2297.38 1531.6 Q2297.38 1538.71 2299.19 1542.27 Q2301.01 1545.82 2304.63 1545.82 Q2308.26 1545.82 2310.07 1542.27 Q2311.89 1538.71 2311.89 1531.6 Q2311.89 1524.47 2310.07 1520.93 Q2308.26 1517.37 2304.63 1517.37 M2304.63 1513.66 Q2310.44 1513.66 2313.49 1518.27 Q2316.57 1522.85 2316.57 1531.6 Q2316.57 1540.33 2313.49 1544.94 Q2310.44 1549.52 2304.63 1549.52 Q2298.82 1549.52 2295.74 1544.94 Q2292.68 1540.33 2292.68 1531.6 Q2292.68 1522.85 2295.74 1518.27 Q2298.82 1513.66 2304.63 1513.66 Z" fill="#000000" fill-rule="nonzero" fill-opacity="1"></path><path clip-path="url(#clip290)" d="M2334.79 1517.37 Q2331.18 1517.37 2329.35 1520.93 Q2327.54 1524.47 2327.54 1531.6 Q2327.54 1538.71 2329.35 1542.27 Q2331.18 1545.82 2334.79 1545.82 Q2338.42 1545.82 2340.23 1542.27 Q2342.06 1538.71 2342.06 1531.6 Q2342.06 1524.47 2340.23 1520.93 Q2338.42 1517.37 2334.79 1517.37 M2334.79 1513.66 Q2340.6 1513.66 2343.65 1518.27 Q2346.73 1522.85 2346.73 1531.6 Q2346.73 1540.33 2343.65 1544.94 Q2340.6 1549.52 2334.79 1549.52 Q2328.98 1549.52 2325.9 1544.94 Q2322.84 1540.33 2322.84 1531.6 Q2322.84 1522.85 2325.9 1518.27 Q2328.98 1513.66 2334.79 1513.66 Z" fill="#000000" fill-rule="nonzero" fill-opacity="1"></path><polyline clip-path="url(#clip292)" style="stroke:#000000; stroke-linecap:round; stroke-linejoin:round; stroke-width:2; stroke-opacity:0.1; fill:none" points="156.112,1448.01 2352.76,1448.01 "></polyline>
<polyline clip-path="url(#clip292)" style="stroke:#000000; stroke-linecap:round; stroke-linejoin:round; stroke-width:2; stroke-opacity:0.1; fill:none" points="156.112,983.387 2352.76,983.387 "></polyline>
<polyline clip-path="url(#clip292)" style="stroke:#000000; stroke-linecap:round; stroke-linejoin:round; stroke-width:2; stroke-opacity:0.1; fill:none" points="156.112,518.761 2352.76,518.761 "></polyline>
<polyline clip-path="url(#clip292)" style="stroke:#000000; stroke-linecap:round; stroke-linejoin:round; stroke-width:2; stroke-opacity:0.1; fill:none" points="156.112,54.1358 2352.76,54.1358 "></polyline>
<polyline clip-path="url(#clip290)" style="stroke:#000000; stroke-linecap:round; stroke-linejoin:round; stroke-width:4; stroke-opacity:1; fill:none" points="156.112,1486.45 156.112,47.2441 "></polyline>
<polyline clip-path="url(#clip290)" style="stroke:#000000; stroke-linecap:round; stroke-linejoin:round; stroke-width:4; stroke-opacity:1; fill:none" points="156.112,1448.01 175.01,1448.01 "></polyline>
<polyline clip-path="url(#clip290)" style="stroke:#000000; stroke-linecap:round; stroke-linejoin:round; stroke-width:4; stroke-opacity:1; fill:none" points="156.112,983.387 175.01,983.387 "></polyline>
<polyline clip-path="url(#clip290)" style="stroke:#000000; stroke-linecap:round; stroke-linejoin:round; stroke-width:4; stroke-opacity:1; fill:none" points="156.112,518.761 175.01,518.761 "></polyline>
<polyline clip-path="url(#clip290)" style="stroke:#000000; stroke-linecap:round; stroke-linejoin:round; stroke-width:4; stroke-opacity:1; fill:none" points="156.112,54.1358 175.01,54.1358 "></polyline>
<path clip-path="url(#clip290)" d="M62.9365 1433.81 Q59.3254 1433.81 57.4967 1437.38 Q55.6912 1440.92 55.6912 1448.05 Q55.6912 1455.15 57.4967 1458.72 Q59.3254 1462.26 62.9365 1462.26 Q66.5707 1462.26 68.3763 1458.72 Q70.205 1455.15 70.205 1448.05 Q70.205 1440.92 68.3763 1437.38 Q66.5707 1433.81 62.9365 1433.81 M62.9365 1430.11 Q68.7467 1430.11 71.8022 1434.71 Q74.8809 1439.3 74.8809 1448.05 Q74.8809 1456.77 71.8022 1461.38 Q68.7467 1465.96 62.9365 1465.96 Q57.1264 1465.96 54.0477 1461.38 Q50.9921 1456.77 50.9921 1448.05 Q50.9921 1439.3 54.0477 1434.71 Q57.1264 1430.11 62.9365 1430.11 Z" fill="#000000" fill-rule="nonzero" fill-opacity="1"></path><path clip-path="url(#clip290)" d="M83.0984 1459.41 L87.9827 1459.41 L87.9827 1465.29 L83.0984 1465.29 L83.0984 1459.41 Z" fill="#000000" fill-rule="nonzero" fill-opacity="1"></path><path clip-path="url(#clip290)" d="M108.168 1433.81 Q104.557 1433.81 102.728 1437.38 Q100.922 1440.92 100.922 1448.05 Q100.922 1455.15 102.728 1458.72 Q104.557 1462.26 108.168 1462.26 Q111.802 1462.26 113.608 1458.72 Q115.436 1455.15 115.436 1448.05 Q115.436 1440.92 113.608 1437.38 Q111.802 1433.81 108.168 1433.81 M108.168 1430.11 Q113.978 1430.11 117.033 1434.71 Q120.112 1439.3 120.112 1448.05 Q120.112 1456.77 117.033 1461.38 Q113.978 1465.96 108.168 1465.96 Q102.358 1465.96 99.2789 1461.38 Q96.2234 1456.77 96.2234 1448.05 Q96.2234 1439.3 99.2789 1434.71 Q102.358 1430.11 108.168 1430.11 Z" fill="#000000" fill-rule="nonzero" fill-opacity="1"></path><path clip-path="url(#clip290)" d="M64.1634 969.186 Q60.5523 969.186 58.7236 972.75 Q56.918 976.292 56.918 983.422 Q56.918 990.528 58.7236 994.093 Q60.5523 997.635 64.1634 997.635 Q67.7976 997.635 69.6031 994.093 Q71.4318 990.528 71.4318 983.422 Q71.4318 976.292 69.6031 972.75 Q67.7976 969.186 64.1634 969.186 M64.1634 965.482 Q69.9735 965.482 73.029 970.088 Q76.1077 974.672 76.1077 983.422 Q76.1077 992.148 73.029 996.755 Q69.9735 1001.34 64.1634 1001.34 Q58.3532 1001.34 55.2745 996.755 Q52.219 992.148 52.219 983.422 Q52.219 974.672 55.2745 970.088 Q58.3532 965.482 64.1634 965.482 Z" fill="#000000" fill-rule="nonzero" fill-opacity="1"></path><path clip-path="url(#clip290)" d="M84.3253 994.787 L89.2095 994.787 L89.2095 1000.67 L84.3253 1000.67 L84.3253 994.787 Z" fill="#000000" fill-rule="nonzero" fill-opacity="1"></path><path clip-path="url(#clip290)" d="M100.205 996.732 L107.844 996.732 L107.844 970.366 L99.5335 972.033 L99.5335 967.774 L107.797 966.107 L112.473 966.107 L112.473 996.732 L120.112 996.732 L120.112 1000.67 L100.205 1000.67 L100.205 996.732 Z" fill="#000000" fill-rule="nonzero" fill-opacity="1"></path><path clip-path="url(#clip290)" d="M64.5337 504.56 Q60.9226 504.56 59.0939 508.125 Q57.2884 511.666 57.2884 518.796 Q57.2884 525.903 59.0939 529.467 Q60.9226 533.009 64.5337 533.009 Q68.168 533.009 69.9735 529.467 Q71.8022 525.903 71.8022 518.796 Q71.8022 511.666 69.9735 508.125 Q68.168 504.56 64.5337 504.56 M64.5337 500.856 Q70.3439 500.856 73.3994 505.463 Q76.4781 510.046 76.4781 518.796 Q76.4781 527.523 73.3994 532.129 Q70.3439 536.713 64.5337 536.713 Q58.7236 536.713 55.6449 532.129 Q52.5893 527.523 52.5893 518.796 Q52.5893 510.046 55.6449 505.463 Q58.7236 500.856 64.5337 500.856 Z" fill="#000000" fill-rule="nonzero" fill-opacity="1"></path><path clip-path="url(#clip290)" d="M84.6956 530.162 L89.5799 530.162 L89.5799 536.041 L84.6956 536.041 L84.6956 530.162 Z" fill="#000000" fill-rule="nonzero" fill-opacity="1"></path><path clip-path="url(#clip290)" d="M103.793 532.106 L120.112 532.106 L120.112 536.041 L98.1678 536.041 L98.1678 532.106 Q100.83 529.352 105.413 524.722 Q110.02 520.069 111.2 518.727 Q113.445 516.204 114.325 514.467 Q115.228 512.708 115.228 511.018 Q115.228 508.264 113.283 506.528 Q111.362 504.792 108.26 504.792 Q106.061 504.792 103.608 505.555 Q101.177 506.319 98.3993 507.87 L98.3993 503.148 Q101.223 502.014 103.677 501.435 Q106.131 500.856 108.168 500.856 Q113.538 500.856 116.733 503.542 Q119.927 506.227 119.927 510.717 Q119.927 512.847 119.117 514.768 Q118.33 516.666 116.223 519.259 Q115.645 519.93 112.543 523.148 Q109.441 526.342 103.793 532.106 Z" fill="#000000" fill-rule="nonzero" fill-opacity="1"></path><path clip-path="url(#clip290)" d="M63.5847 39.9345 Q59.9736 39.9345 58.1449 43.4993 Q56.3393 47.0409 56.3393 54.1705 Q56.3393 61.277 58.1449 64.8418 Q59.9736 68.3834 63.5847 68.3834 Q67.2189 68.3834 69.0244 64.8418 Q70.8531 61.277 70.8531 54.1705 Q70.8531 47.0409 69.0244 43.4993 Q67.2189 39.9345 63.5847 39.9345 M63.5847 36.2308 Q69.3948 36.2308 72.4503 40.8373 Q75.529 45.4206 75.529 54.1705 Q75.529 62.8973 72.4503 67.5038 Q69.3948 72.0871 63.5847 72.0871 Q57.7745 72.0871 54.6958 67.5038 Q51.6403 62.8973 51.6403 54.1705 Q51.6403 45.4206 54.6958 40.8373 Q57.7745 36.2308 63.5847 36.2308 Z" fill="#000000" fill-rule="nonzero" fill-opacity="1"></path><path clip-path="url(#clip290)" d="M83.7466 65.5362 L88.6308 65.5362 L88.6308 71.4158 L83.7466 71.4158 L83.7466 65.5362 Z" fill="#000000" fill-rule="nonzero" fill-opacity="1"></path><path clip-path="url(#clip290)" d="M112.983 52.7816 Q116.339 53.4992 118.214 55.7677 Q120.112 58.0362 120.112 61.3696 Q120.112 66.4853 116.594 69.2862 Q113.075 72.0871 106.594 72.0871 Q104.418 72.0871 102.103 71.6473 Q99.8113 71.2306 97.3576 70.3741 L97.3576 65.8603 Q99.3021 66.9945 101.617 67.5732 Q103.932 68.1519 106.455 68.1519 Q110.853 68.1519 113.145 66.4158 Q115.459 64.6797 115.459 61.3696 Q115.459 58.314 113.307 56.6011 Q111.177 54.865 107.358 54.865 L103.33 54.865 L103.33 51.0224 L107.543 51.0224 Q110.992 51.0224 112.82 49.6567 Q114.649 48.2678 114.649 45.6752 Q114.649 43.0132 112.751 41.6011 Q110.876 40.166 107.358 40.166 Q105.436 40.166 103.237 40.5826 Q101.038 40.9993 98.3993 41.8789 L98.3993 37.7123 Q101.061 36.9715 103.376 36.6012 Q105.714 36.2308 107.774 36.2308 Q113.098 36.2308 116.2 38.6613 Q119.302 41.0687 119.302 45.1891 Q119.302 48.0594 117.658 50.0502 Q116.015 52.0178 112.983 52.7816 Z" fill="#000000" fill-rule="nonzero" fill-opacity="1"></path><polyline clip-path="url(#clip292)" style="stroke:#009af9; stroke-linecap:round; stroke-linejoin:round; stroke-width:4; stroke-opacity:1; fill:none" points="218.281,87.9763 220.356,90.4284 222.43,89.9999 224.504,90.9829 226.579,93.7771 228.653,102.33 230.728,112.205 232.802,123.289 234.876,135.461 236.951,148.585 239.025,162.519 241.099,177.113 243.174,192.213 245.248,207.66 247.323,223.295 249.397,238.959 251.471,254.494 253.546,269.746 255.62,284.566 257.695,298.81 259.769,312.344 261.843,325.039 263.918,336.777 265.992,347.45 268.066,356.959 270.141,362.067 272.215,365.027 274.29,366.266 276.364,366.022 278.438,368.752 280.513,369.98 282.587,369.732 284.661,371.497 286.736,370.643 288.81,375.283 290.885,381.272 292.959,384.697 295.033,390.22 297.108,398.065 299.182,408.333 301.256,419.863 303.331,432.158 305.405,445.087 307.48,458.513 309.554,472.296 311.628,486.295 313.703,500.365 315.777,514.365 317.852,528.156 319.926,541.601 322,554.568 324.075,566.934 326.149,578.578 328.223,589.392 330.298,598.868 332.372,607.727 334.447,615.48 336.521,618.585 338.595,623.952 340.67,628.032 342.744,627.424 344.818,626.669 346.893,626.487 348.967,625.671 351.042,628.063 353.116,631.684 355.19,636.494 357.265,642.441 359.339,646.037 361.413,654.082 363.488,663.036 365.562,672.802 367.637,683.276 369.711,694.347 371.785,705.898 373.86,717.811 375.934,729.96 378.009,742.223 380.083,754.475 382.157,766.593 384.232,778.456 386.306,789.948 388.38,800.957 390.455,811.375 392.529,821.102 394.604,830.047 396.678,836.742 398.752,841.551 400.827,847.711 402.901,849.401 404.975,849.852 407.05,849.419 409.124,851.249 411.199,851.879 413.273,851.368 415.347,850.342 417.422,849.42 419.496,853.383 421.571,854.277 423.645,860.192 425.719,863.949 427.794,871.538 429.868,879.83 431.942,888.528 434.017,897.958 436.091,907.811 438.166,917.985 440.24,928.375 442.314,938.875 444.389,949.379 446.463,959.78 448.537,969.976 450.612,979.865 452.686,989.35 454.761,998.338 456.835,1006.74 458.909,1014.48 460.984,1020.2 463.058,1024.38 465.132,1029.76 467.207,1031.36 469.281,1034.92 471.356,1034.74 473.43,1036.37 475.504,1035.99 477.579,1036.17 479.653,1037.27 481.728,1039.23 483.802,1038.61 485.876,1038.66 487.951,1043.23 490.025,1048.51 492.099,1054.45 494.174,1059.22 496.248,1065.25 498.323,1072.82 500.397,1080.78 502.471,1089.03 504.546,1097.49 506.62,1106.09 508.694,1114.71 510.769,1123.3 512.843,1131.74 514.918,1139.97 516.992,1147.9 519.066,1155.45 521.141,1162.55 523.215,1169.12 525.29,1173.91 527.364,1179.28 529.438,1183.95 531.513,1187.88 533.587,1188.57 535.661,1191 537.736,1192.59 539.81,1192.22 541.885,1192.14 543.959,1191.52 546.033,1190.56 548.108,1192.77 550.182,1192.3 552.256,1192.48 554.331,1196.66 556.405,1198.72 558.48,1201.7 560.554,1205.62 562.628,1210.44 564.703,1216.08 566.777,1222.42 568.851,1229.14 570.926,1235.95 573,1242.77 575.075,1249.53 577.149,1256.18 579.223,1262.64 581.298,1268.84 583.372,1274.73 585.447,1280.08 587.521,1285.18 589.595,1289.8 591.67,1292.6 593.744,1294.59 595.818,1297.62 597.893,1300.02 599.967,1300.16 602.042,1300 604.116,1300.62 606.19,1300.61 608.265,1300.96 610.339,1301.83 612.413,1300.95 614.488,1300.21 616.562,1299.84 618.637,1302.97 620.711,1306.47 622.785,1310.29 624.86,1312.64 626.934,1317.04 629.008,1321.64 631.083,1325.8 633.157,1330.39 635.232,1335.27 637.306,1340.21 639.38,1345.11 641.455,1349.91 643.529,1354.58 645.604,1359.05 647.678,1363.29 649.752,1367.25 651.827,1370.32 653.901,1373.64 655.975,1375.56 658.05,1378.12 660.124,1379.02 662.199,1380.75 664.273,1382.01 666.347,1382.78 668.422,1382.68 670.496,1382.68 672.57,1382.27 674.645,1381.38 676.719,1382.53 678.794,1381.68 680.868,1383.63 682.942,1385.79 685.017,1388.14 687.091,1390.66 689.166,1393.33 691.24,1394.89 693.314,1397.8 695.389,1400.77 697.463,1403.25 699.537,1405.9 701.612,1408.9 703.686,1411.82 705.761,1414.58 707.835,1417.3 709.909,1419.86 711.984,1422.08 714.058,1424 716.132,1426 718.207,1427.3 720.281,1428.29 722.356,1429.58 724.43,1430.59 726.504,1431.3 728.579,1431.36 730.653,1431.35 732.727,1431.33 734.802,1431.17 736.876,1430.71 738.951,1429.93 741.025,1430.72 743.099,1429.92 745.174,1429.32 747.248,1430.8 749.323,1430.7 751.397,1430.87 753.471,1432.58 755.546,1433.25 757.62,1434.14 759.694,1435.19 761.769,1436.84 763.843,1438.39 765.918,1439.83 767.992,1440.94 770.066,1441.96 772.141,1443 774.215,1443.76 776.289,1444.48 778.364,1444.91 780.438,1445.29 782.513,1445.42 784.587,1445.45 786.661,1445.38 788.736,1445.08 790.81,1444.59 792.885,1444.51 794.959,1444.52 797.033,1443.72 799.108,1442.75 801.182,1441.64 803.256,1442.41 805.331,1443.21 807.405,1442.29 809.48,1443.23 811.554,1442.73 813.628,1442.47 815.703,1443.45 817.777,1444.27 819.851,1444.91 821.926,1445.37 824,1445.65 826.075,1445.72 828.149,1445.7 830.223,1445.5 832.298,1445.11 834.372,1444.68 836.446,1444.12 838.521,1443.26 840.595,1442.23 842.67,1441.37 844.744,1440.48 846.818,1439.62 848.893,1438.81 850.967,1437.32 853.042,1435.73 855.116,1435.32 857.19,1433.71 859.265,1433.73 861.339,1433.98 863.413,1432.56 865.488,1431.14 867.562,1431.98 869.637,1430.82 871.711,1431.58 873.785,1432.19 875.86,1431.86 877.934,1431.67 880.008,1431.87 882.083,1431.77 884.157,1431.37 886.232,1431.23 888.306,1430.31 890.38,1429.82 892.455,1429.13 894.529,1427.52 896.603,1425.66 898.678,1424.28 900.752,1422.75 902.827,1421.13 904.901,1418.6 906.975,1416.89 909.05,1414.15 911.124,1411.34 913.199,1409.92 915.273,1408.77 917.347,1406.01 919.422,1403.27 921.496,1403 923.57,1400.51 925.645,1400.86 927.719,1401.46 929.794,1399.65 931.868,1400.57 933.942,1401.37 936.017,1401.93 938.091,1402.22 940.165,1402.19 942.24,1402.4 944.314,1402.66 946.389,1402.92 948.463,1403.11 950.537,1403.15 952.612,1401.41 954.686,1400.9 956.761,1400.15 958.835,1399.14 960.909,1396.21 962.984,1393.01 965.058,1391.22 967.132,1387.63 969.207,1385.61 971.281,1383.62 973.356,1379.73 975.43,1377.96 977.504,1374.06 979.579,1370.18 981.653,1369.19 983.727,1368.59 985.802,1368.38 987.876,1368.54 989.951,1369.01 992.025,1366.55 994.099,1364.35 996.174,1365.37 998.248,1363.9 1000.32,1364.63 1002.4,1365.01 1004.47,1364.91 1006.55,1365.07 1008.62,1365.4 1010.69,1364.61 1012.77,1365.07 1014.84,1365.47 1016.92,1365.73 1018.99,1363.63 1021.07,1361.15 1023.14,1360.68 1025.22,1359.98 1027.29,1359.08 1029.36,1358.02 1031.44,1356.86 1033.51,1352.71 1035.59,1348.18 1037.66,1346.62 1039.74,1345.2 1041.81,1344.01 1043.88,1343.13 1045.96,1342.58 1048.03,1342.41 1050.11,1338.36 1052.18,1338.86 1054.26,1335.34 1056.33,1336.4 1058.41,1333.56 1060.48,1334.9 1062.55,1332.91 1064.63,1333.93 1066.7,1332.92 1068.78,1332.37 1070.85,1332.46 1072.93,1332.17 1075,1331.49 1077.07,1332.17 1079.15,1330.79 1081.22,1329.03 1083.3,1329.55 1085.37,1329.9 1087.45,1330.09 1089.52,1330.09 1091.6,1326.96 1093.67,1323.52 1095.74,1319.78 1097.82,1315.74 1099.89,1315.01 1101.97,1310.6 1104.04,1310.02 1106.12,1305.35 1108.19,1305.18 1110.26,1300.28 1112.34,1300.62 1114.41,1295.77 1116.49,1291.13 1118.56,1286.74 1120.64,1288.05 1122.71,1284.46 1124.79,1281.22 1126.86,1278.41 1128.93,1279.9 1131.01,1278.2 1133.08,1277.1 1135.16,1277.46 1137.23,1277.48 1139.31,1277.1 1141.38,1277.81 1143.45,1278.68 1145.53,1279.62 1147.6,1277.91 1149.68,1275.81 1151.75,1276.54 1153.83,1277.14 1155.9,1274.11 1157.98,1270.71 1160.05,1266.94 1162.12,1266.88 1164.2,1266.82 1166.27,1262.32 1168.35,1262.35 1170.42,1262.58 1172.5,1263.05 1174.57,1263.8 1176.64,1258.76 1178.72,1260.09 1180.79,1261.72 1182.87,1263.61 1184.94,1258.95 1187.02,1260.96 1189.09,1263 1191.17,1259.73 1193.24,1256.93 1195.31,1254.64 1197.39,1255.69 1199.46,1254.77 1201.54,1255 1203.61,1255.18 1205.69,1254.7 1207.76,1253.85 1209.83,1252.66 1211.91,1251.12 1213.98,1249.25 1216.06,1247.05 1218.13,1248.09 1220.21,1249.04 1222.28,1246.07 1224.36,1246.82 1226.43,1243.33 1228.5,1239.52 1230.58,1240.16 1232.65,1240.92 1234.73,1241.85 1236.8,1237.31 1238.88,1238.66 1240.95,1233.86 1243.02,1228.92 1245.1,1223.89 1247.17,1226.23 1249.25,1228.76 1251.32,1224.02 1253.4,1226.6 1255.47,1228.99 1257.55,1231.18 1259.62,1228.7 1261.69,1229.9 1263.77,1228.87 1265.84,1229.15 1267.92,1228.99 1269.99,1228.44 1272.07,1229.49 1274.14,1230.78 1276.22,1229.41 1278.29,1230.96 1280.36,1232.56 1282.44,1230.58 1284.51,1232.1 1286.59,1229.7 1288.66,1227.01 1290.74,1228.34 1292.81,1229.69 1294.88,1231.11 1296.96,1232.63 1299.03,1228.95 1301.11,1230.72 1303.18,1226.6 1305.26,1222.21 1307.33,1224.54 1309.41,1219.91 1311.48,1215.17 1313.55,1210.4 1315.63,1213.37 1317.7,1216.32 1319.78,1212.32 1321.85,1208.8 1323.93,1205.67 1326,1207.29 1328.07,1205.59 1330.15,1206.18 1332.22,1206.32 1334.3,1206.08 1336.37,1205.49 1338.45,1206.73 1340.52,1205.67 1342.6,1207.38 1344.67,1209.21 1346.74,1211.12 1348.82,1213.1 1350.89,1211.35 1352.97,1213.37 1355.04,1211.26 1357.12,1208.88 1359.19,1210.99 1361.26,1208.1 1363.34,1204.87 1365.41,1207.19 1367.49,1209.68 1369.56,1205.67 1371.64,1208.49 1373.71,1204.03 1375.79,1199.37 1377.86,1194.53 1379.93,1197.87 1382.01,1193.18 1384.08,1188.5 1386.16,1191.56 1388.23,1194.18 1390.31,1191.25 1392.38,1192.63 1394.45,1191.21 1396.53,1190.51 1398.6,1190.38 1400.68,1190.14 1402.75,1191.06 1404.83,1190.38 1406.9,1189.51 1408.98,1191.39 1411.05,1190.27 1413.12,1189 1415.2,1187.57 1417.27,1189.88 1419.35,1188.14 1421.42,1190.56 1423.5,1188.41 1425.57,1185.94 1427.64,1183.12 1429.72,1185.87 1431.79,1182.41 1433.87,1185.43 1435.94,1181.32 1438.02,1176.86 1440.09,1172.09 1442.17,1167.07 1444.24,1170.73 1446.31,1174.39 1448.39,1169.48 1450.46,1164.76 1452.54,1160.56 1454.61,1163.24 1456.69,1160.2 1458.76,1161.53 1460.83,1160.14 1462.91,1160.49 1464.98,1160.46 1467.06,1160.11 1469.13,1159.51 1471.21,1158.71 1473.28,1160.62 1475.36,1162.77 1477.43,1161.67 1479.5,1160.45 1481.58,1159.07 1483.65,1157.51 1485.73,1155.73 1487.8,1158.45 1489.88,1156.24 1491.95,1153.68 1494.02,1150.75 1496.1,1153.89 1498.17,1157.2 1500.25,1160.68 1502.32,1156.54 1504.4,1160.3 1506.47,1164.19 1508.55,1168.15 1510.62,1172.1 1512.69,1175.98 1514.77,1179.69 1516.84,1183.12 1518.92,1179.74 1520.99,1182 1523.07,1179.78 1525.14,1178.44 1527.21,1178.87 1529.29,1178.83 1531.36,1179.3 1533.44,1180.25 1535.51,1179.62 1537.59,1178.86 1539.66,1180.91 1541.74,1183.17 1543.81,1185.62 1545.88,1184.74 1547.96,1183.76 1550.03,1182.64 1552.11,1185.54 1554.18,1184.11 1556.26,1187.22 1558.33,1190.48 1560.41,1188.33 1562.48,1185.78 1564.55,1189.46 1566.63,1186.19 1568.7,1190.17 1570.78,1194.26 1572.85,1198.4 1574.93,1202.53 1577,1206.55 1579.07,1202.34 1581.15,1206.02 1583.22,1209.34 1585.3,1206.34 1587.37,1203.67 1589.45,1204.89 1591.52,1205.54 1593.6,1205.74 1595.67,1205.59 1597.74,1206.32 1599.82,1205.8 1601.89,1207.37 1603.97,1206.74 1606.04,1208.93 1608.12,1208.32 1610.19,1207.7 1612.26,1210.44 1614.34,1213.32 1616.41,1216.33 1618.49,1219.49 1620.56,1218.68 1622.64,1217.61 1624.71,1216.22 1626.79,1219.85 1628.86,1223.62 1630.93,1221.3 1633.01,1225.3 1635.08,1229.38 1637.16,1233.5 1639.23,1237.58 1641.31,1241.58 1643.38,1245.4 1645.45,1248.96 1647.53,1245.68 1649.6,1242.71 1651.68,1244.87 1653.75,1246.26 1655.83,1245.21 1657.9,1244.68 1659.98,1244.63 1662.05,1244.43 1664.12,1245.25 1666.2,1244.85 1668.27,1246.34 1670.35,1245.97 1672.42,1245.62 1674.5,1245.32 1676.57,1245.04 1678.64,1244.77 1680.72,1247.68 1682.79,1247.36 1684.87,1250.55 1686.94,1253.89 1689.02,1253.17 1691.09,1252.16 1693.17,1250.79 1695.24,1249.05 1697.31,1246.89 1699.39,1244.33 1701.46,1248.41 1703.54,1252.47 1705.61,1249.08 1707.69,1245.46 1709.76,1249.3 1711.83,1252.83 1713.91,1249.58 1715.98,1252.16 1718.06,1249.99 1720.13,1248.41 1722.21,1249.05 1724.28,1249.26 1726.36,1249.18 1728.43,1248.89 1730.5,1249.9 1732.58,1251.22 1734.65,1252.8 1736.73,1254.62 1738.8,1254.43 1740.88,1254.29 1742.95,1254.17 1745.02,1256.89 1747.1,1256.8 1749.17,1259.95 1751.25,1259.67 1753.32,1263.11 1755.4,1266.69 1757.47,1265.77 1759.55,1264.48 1761.62,1268.4 1763.69,1266.39 1765.77,1263.95 1767.84,1268.04 1769.92,1272.08 1771.99,1268.81 1774.07,1265.32 1776.14,1269.03 1778.21,1265.65 1780.29,1262.5 1782.36,1264.83 1784.44,1262.82 1786.51,1261.35 1788.59,1261.88 1790.66,1261.5 1792.74,1261.56 1794.81,1262.01 1796.88,1261.8 1798.96,1262.97 1801.03,1262.81 1803.11,1264.54 1805.18,1264.55 1807.26,1266.71 1809.33,1269.07 1811.41,1269.27 1813.48,1272.03 1815.55,1272.13 1817.63,1272.06 1819.7,1271.74 1821.78,1275.42 1823.85,1279.24 1825.93,1278.02 1828,1282.07 1830.07,1286.19 1832.15,1290.33 1834.22,1294.45 1836.3,1291.46 1838.37,1295.46 1840.45,1299.26 1842.52,1295.89 1844.6,1292.55 1846.67,1289.52 1848.74,1291.64 1850.82,1289.68 1852.89,1288.21 1854.97,1288.7 1857.04,1288.88 1859.12,1288.88 1861.19,1288.76 1863.26,1289.56 1865.34,1290.65 1867.41,1292.01 1869.49,1292.11 1871.56,1292.3 1873.64,1292.55 1875.71,1294.8 1877.79,1297.24 1879.86,1299.86 1881.93,1300.16 1884.01,1303.13 1886.08,1306.35 1888.16,1309.81 1890.23,1313.48 1892.31,1317.36 1894.38,1321.32 1896.45,1325.31 1898.53,1323.36 1900.6,1320.98 1902.68,1318.19 1904.75,1322.15 1906.83,1325.88 1908.9,1322.68 1910.98,1319.51 1913.05,1321.99 1915.12,1319.73 1917.2,1317.88 1919.27,1316.44 1921.35,1315.4 1923.42,1315.6 1925.5,1315.38 1927.57,1315.36 1929.64,1315.34 1931.72,1315.37 1933.79,1316.49 1935.87,1316.72 1937.94,1318.35 1940.02,1320.2 1942.09,1322.27 1944.17,1324.55 1946.24,1325.08 1948.31,1327.75 1950.39,1328.13 1952.46,1331.15 1954.54,1331.06 1956.61,1330.62 1958.69,1334.32 1960.76,1333.1 1962.83,1337.12 1964.91,1335.04 1966.98,1332.49 1969.06,1336.57 1971.13,1340.5 1973.21,1337.15 1975.28,1333.69 1977.36,1336.7 1979.43,1339 1981.5,1340.62 1983.58,1341.61 1985.65,1342.19 1987.73,1342.48 1989.8,1342.59 1991.88,1342.52 1993.95,1342.74 1996.02,1343.23 1998.1,1343.99 2000.17,1344.2 2002.25,1345.46 2004.32,1346.94 2006.4,1348.64 2008.47,1349.19 2010.55,1349.75 2012.62,1352.04 2014.69,1354.51 2016.77,1357.15 2018.84,1357.36 2020.92,1357.29 2022.99,1356.87 2025.07,1356.07 2027.14,1359.63 2029.21,1358.02 2031.29,1355.95 2033.36,1353.42 2035.44,1357.23 2037.51,1354.05 2039.59,1350.65 2041.66,1353.91 2043.74,1350.85 2045.81,1348.09 2047.88,1349.46 2049.96,1347.49 2052.03,1348.03 2054.11,1348.31 2056.18,1347.51 2058.26,1347.53 2060.33,1347.52 2062.4,1347.72 2064.48,1347.81 2066.55,1348 2068.63,1348.28 2070.7,1349.56 2072.78,1351.07 2074.85,1351.57 2076.93,1353.52 2079,1354.02 2081.07,1356.37 2083.15,1358.92 2085.22,1359 2087.3,1361.9 2089.37,1364.94 2091.45,1368.19 2093.52,1366.95 2095.6,1370.61 2097.67,1374.27 2099.74,1371.84 2101.82,1368.97 2103.89,1372.68 2105.97,1376.14 2108.04,1378.94 2110.12,1381.13 2112.19,1378.83 2114.26,1379.96 2116.34,1378.27 2118.41,1378.69 2120.49,1377.59 2122.56,1377.66 2124.64,1377.12 2126.71,1377.09 2128.79,1377.09 2130.86,1377.16 2132.93,1377.66 2135.01,1378.37 2137.08,1379.29 2139.16,1380.41 2141.23,1381.72 2143.31,1383.23 2145.38,1383.68 2147.45,1385.57 2149.53,1387.63 2151.6,1387.75 2153.68,1387.62 2155.75,1390.2 2157.83,1389.46 2159.9,1388.32 2161.98,1386.74 2164.05,1390.11 2166.12,1387.72 2168.2,1384.91 2170.27,1388.41 2172.35,1391.45 2174.42,1393.91 2176.5,1395.82 2178.57,1397.18 2180.64,1395.24 2182.72,1395.79 2184.79,1396.09 2186.87,1396.21 2188.94,1396.21 2191.02,1395.57 2193.09,1395.5 2195.17,1395.3 2197.24,1395.29 2199.31,1395.47 2201.39,1395.61 2203.46,1395.82 2205.54,1396.1 2207.61,1397.1 2209.69,1397.44 2211.76,1398.8 2213.83,1400.33 2215.91,1400.5 2217.98,1402.37 2220.06,1404.38 2222.13,1406.51 2224.21,1408.95 2226.28,1411.46 2228.36,1410.18 2230.43,1412.88 2232.5,1410.92 2234.58,1413.74 2236.65,1411.28 2238.73,1413.68 2240.8,1415.63 2242.88,1417.16 2244.95,1415.24 2247.02,1415.96 2249.1,1416.4 2251.17,1414.99 2253.25,1413.69 2255.32,1413.61 2257.4,1412.63 2259.47,1412.44 2261.55,1411.79 2263.62,1411.62 2265.69,1411.3 2267.77,1411.24 2269.84,1411.26 2271.92,1411.43 2273.99,1411.55 2276.07,1412.06 2278.14,1412.72 2280.21,1413.54 2282.29,1414.51 2284.36,1414.52 2286.44,1414.39 2288.51,1414.05 2290.59,1413.44 "></polyline>
<path clip-path="url(#clip290)" d="M2007.44 198.898 L2279.53 198.898 L2279.53 95.2176 L2007.44 95.2176  Z" fill="#ffffff" fill-rule="evenodd" fill-opacity="1"></path>
<polyline clip-path="url(#clip290)" style="stroke:#000000; stroke-linecap:round; stroke-linejoin:round; stroke-width:4; stroke-opacity:1; fill:none" points="2007.44,198.898 2279.53,198.898 2279.53,95.2176 2007.44,95.2176 2007.44,198.898 "></polyline>
<polyline clip-path="url(#clip290)" style="stroke:#009af9; stroke-linecap:round; stroke-linejoin:round; stroke-width:4; stroke-opacity:1; fill:none" points="2031.85,147.058 2178.29,147.058 "></polyline>
<path clip-path="url(#clip290)" d="M2216.54 166.745 Q2214.73 171.375 2213.02 172.787 Q2211.31 174.199 2208.44 174.199 L2205.03 174.199 L2205.03 170.634 L2207.53 170.634 Q2209.29 170.634 2210.27 169.8 Q2211.24 168.967 2212.42 165.865 L2213.18 163.921 L2202.7 138.412 L2207.21 138.412 L2215.31 158.689 L2223.41 138.412 L2227.93 138.412 L2216.54 166.745 Z" fill="#000000" fill-rule="nonzero" fill-opacity="1"></path><path clip-path="url(#clip290)" d="M2235.22 160.402 L2242.86 160.402 L2242.86 134.037 L2234.55 135.703 L2234.55 131.444 L2242.81 129.778 L2247.49 129.778 L2247.49 160.402 L2255.13 160.402 L2255.13 164.338 L2235.22 164.338 L2235.22 160.402 Z" fill="#000000" fill-rule="nonzero" fill-opacity="1"></path></svg>